<?xml version="1.0" encoding="utf-8"?>
<!-- Generator: Adobe Illustrator 16.0.0, SVG Export Plug-In . SVG Version: 6.00 Build 0)  -->
<!DOCTYPE svg PUBLIC "-//W3C//DTD SVG 1.1//EN" "http://www.w3.org/Graphics/SVG/1.1/DTD/svg11.dtd">
<svg version="1.1" id="Layer_1" xmlns="http://www.w3.org/2000/svg" xmlns:xlink="http://www.w3.org/1999/xlink" x="0px" y="0px"
	 width="79.833px" height="50px" viewBox="0 0 79.833 50" enable-background="new 0 0 79.833 50" xml:space="preserve">
<g>
	<path fill="#8176B7" d="M70.524,15.777c0-0.047,0.039-0.085,0.087-0.085s0.086,0.039,0.086,0.085v0.387
		c0,0.048-0.038,0.086-0.086,0.086s-0.087-0.039-0.087-0.086V15.777z M69.938,16.092c-0.033-0.033-0.033-0.087,0-0.122
		c0.033-0.034,0.088-0.034,0.122,0l0.273,0.274c0.034,0.034,0.034,0.088,0,0.122c-0.035,0.034-0.089,0.034-0.122,0L69.938,16.092z
		 M69.746,16.729c-0.048,0-0.087-0.039-0.087-0.086c0-0.047,0.039-0.086,0.087-0.086h0.387c0.048,0,0.086,0.039,0.086,0.086
		c0,0.048-0.038,0.086-0.086,0.086H69.746z M70.061,17.314c-0.034,0.035-0.089,0.035-0.122,0c-0.033-0.032-0.033-0.087,0-0.12
		l0.273-0.274c0.033-0.034,0.087-0.034,0.122,0c0.034,0.033,0.034,0.087,0,0.122L70.061,17.314z M70.697,17.508
		c0,0.048-0.038,0.086-0.086,0.086s-0.087-0.038-0.087-0.086v-0.387c0-0.048,0.039-0.086,0.087-0.086s0.086,0.039,0.086,0.086
		V17.508z M71.284,17.194c0.032,0.033,0.032,0.088,0,0.12c-0.034,0.035-0.089,0.035-0.122,0l-0.273-0.272
		c-0.034-0.035-0.034-0.089,0-0.122c0.032-0.034,0.088-0.034,0.121,0L71.284,17.194z M71.476,16.557
		c0.048,0,0.087,0.039,0.087,0.086c0,0.048-0.039,0.086-0.087,0.086h-0.387c-0.047,0-0.085-0.039-0.085-0.086
		c0-0.047,0.038-0.086,0.085-0.086H71.476z M71.162,15.97c0.033-0.034,0.088-0.034,0.122,0c0.032,0.035,0.032,0.089,0,0.122
		l-0.274,0.273c-0.033,0.034-0.089,0.034-0.121,0c-0.034-0.033-0.034-0.087,0-0.122L71.162,15.97z"/>
	<path fill-rule="evenodd" clip-rule="evenodd" fill="#A0ADD8" d="M70.611,22.232c2.561,0,4.638-2.076,4.638-4.638
		c0-2.562-2.077-4.639-4.638-4.639c-2.562,0-4.639,2.077-4.639,4.639C65.973,20.156,68.05,22.232,70.611,22.232L70.611,22.232z"/>
	<g>
		<rect x="16.735" y="6.542" fill-rule="evenodd" clip-rule="evenodd" fill="#BDBADD" width="4.494" height="1.361"/>
		<rect x="10.062" y="8.176" fill-rule="evenodd" clip-rule="evenodd" fill="#BDBADD" width="4.494" height="1.362"/>
		<rect x="14.77" y="8.176" fill-rule="evenodd" clip-rule="evenodd" fill="#BDBADD" width="4.494" height="1.362"/>
		<rect x="12.027" y="9.81" fill-rule="evenodd" clip-rule="evenodd" fill="#BDBADD" width="4.494" height="1.362"/>
		<rect x="10.062" y="11.444" fill-rule="evenodd" clip-rule="evenodd" fill="#BDBADD" width="4.494" height="1.362"/>
		<rect x="14.77" y="11.444" fill-rule="evenodd" clip-rule="evenodd" fill="#BDBADD" width="4.494" height="1.362"/>
	</g>
	<rect x="19.649" y="36.429" fill-rule="evenodd" clip-rule="evenodd" fill="#BDBADD" width="4.495" height="1.359"/>
	<rect x="24.357" y="36.429" fill-rule="evenodd" clip-rule="evenodd" fill="#BDBADD" width="4.494" height="1.359"/>
	<rect x="17.685" y="38.063" fill-rule="evenodd" clip-rule="evenodd" fill="#BDBADD" width="4.494" height="1.361"/>
	<rect x="22.393" y="38.063" fill-rule="evenodd" clip-rule="evenodd" fill="#BDBADD" width="4.494" height="1.361"/>
	<rect x="24.357" y="39.696" fill-rule="evenodd" clip-rule="evenodd" fill="#BDBADD" width="4.494" height="1.361"/>
	<rect x="17.685" y="41.329" fill-rule="evenodd" clip-rule="evenodd" fill="#BDBADD" width="4.494" height="1.362"/>
	<rect x="22.393" y="41.329" fill-rule="evenodd" clip-rule="evenodd" fill="#BDBADD" width="4.494" height="1.362"/>
	<g>
		<path fill-rule="evenodd" clip-rule="evenodd" fill="#BDBADD" d="M27.285,5.445h19.782c0.504,0,0.917,0.413,0.917,0.917v28.216
			h0.704c0.338,0,0.615,0.277,0.615,0.616v2.52c0,0.339-0.277,0.615-0.615,0.615H25.664c-0.339,0-0.616-0.276-0.616-0.615v-2.52
			c0-0.339,0.277-0.616,0.616-0.616h0.704V6.362C26.368,5.858,26.781,5.445,27.285,5.445L27.285,5.445z"/>
		<path fill-rule="evenodd" clip-rule="evenodd" fill="#F3F5F9" d="M26.781,5.232h19.781c0.505,0,0.917,0.413,0.917,0.917v28.653
			c0,0.504-0.413,0.917-0.917,0.917H26.781c-0.505,0-0.917-0.413-0.917-0.917V6.149C25.864,5.645,26.276,5.232,26.781,5.232
			L26.781,5.232z"/>
		<rect x="27.54" y="21.176" fill-rule="evenodd" clip-rule="evenodd" fill="#546BB3" width="18.264" height="11.957"/>
		<g>
			<rect x="27.54" y="6.908" fill-rule="evenodd" clip-rule="evenodd" fill="#E6E5F3" width="18.264" height="14.578"/>
			<path fill-rule="evenodd" clip-rule="evenodd" fill="#546BB3" d="M29.341,8.709v4.587h6.43V8.709H29.341z M29.341,15.097v4.587
				h6.43v-4.587H29.341z M37.572,19.685h6.431v-4.587h-6.431V19.685z M44.002,13.296V8.709h-6.431v4.587H44.002z"/>
			<path fill-rule="evenodd" clip-rule="evenodd" fill="#BDBADD" d="M43.273,12.167l-1.129,1.13h-2.99l3.823-3.823h0.296V12.167z
				 M40.455,9.473h1.295l-3.823,3.823h-0.354v-0.941L40.455,9.473z M35.771,18.92H33.53l2.241-2.241V18.92z M32.302,18.92h-1.295
				l3.822-3.823h0.941v0.354L32.302,18.92z M40.343,15.097l-2.771,2.771v-2.771H40.343z"/>
		</g>
		<path fill-rule="evenodd" clip-rule="evenodd" fill="#DFDEEF" d="M25.16,34.365h23.024c0.338,0,0.615,0.277,0.615,0.615v2.52
			c0,0.339-0.277,0.617-0.615,0.617H25.16c-0.338,0-0.615-0.278-0.615-0.617v-2.52C24.545,34.643,24.822,34.365,25.16,34.365
			L25.16,34.365z"/>
		<g>
			<path fill-rule="evenodd" clip-rule="evenodd" fill="#284188" d="M37.301,22.686l-0.238,0.025l-0.147-0.005l-0.146-0.007
				l-0.235-0.043l-1.346-1.376l-3.092,1.361c0.094,4.86-0.414,7.14-1.01,10.491h9.394c0.013-1.443,0.595-3.582,0.717-4.741
				l0.529-5.372l-2.976-1.601L37.301,22.686z"/>
			<path fill-rule="evenodd" clip-rule="evenodd" fill="#212F61" d="M37.869,33.133h1.696c0.368-0.305,0.727-0.573,0.955-0.68
				c0.134-1.374,0.573-3.072,0.677-4.062l0.014-0.152c-0.037-0.37-0.079-0.77-0.125-1.201c-0.17-1.595,0.201-2.655,0.567-3.288
				l0.073-0.73l-2.976-1.601l-0.468,0.41l-0.162,0.768c0,0,1.609,1.242,1.804,1.921c0.194,0.679-0.486,5.35-0.969,7.367
				C38.835,32.377,38.423,32.79,37.869,33.133L37.869,33.133z"/>
			<path fill-rule="evenodd" clip-rule="evenodd" fill="#212F61" d="M32.099,22.837c0.049,2.986-0.133,4.989-0.423,6.893l0,0
				c0,0,1.578-5.904,1.404-6.066C32.944,23.539,32.773,23.397,32.099,22.837L32.099,22.837z"/>
			<path fill-rule="evenodd" clip-rule="evenodd" fill="#B2AFC2" d="M38.615,21.074c-1.082-0.519-2.146-0.561-3.266-0.128
				l0.17,0.516l2.885,0.114L38.615,21.074z"/>
			<path fill-rule="evenodd" clip-rule="evenodd" fill="#31285B" d="M37.301,22.686l-0.238,0.025l-0.294-0.012l-0.235-0.043
				l-0.904-0.925l-0.142,0.038l-0.316,0.384c0,0,0.623,1.613,0.66,1.668c0.039,0.055,0.108,0.085,0.217-0.035
				c0.107-0.122,0.447-0.517,0.447-0.517s0.097-0.095,0.137,0.018c0.04,0.113,0.536-0.173,0.536-0.173l0.03,0.108
				c0,0,0.077-0.086,0.146,0.032c0.068,0.118,0.406,0.632,0.431,0.654c0.024,0.024,0.129,0.102,0.212-0.05
				c0.073-0.141,0.96-1.937,1.114-2.25l-0.351-0.188L37.301,22.686z"/>
			<path fill-rule="evenodd" clip-rule="evenodd" fill="#212F61" d="M37.301,22.686l-0.238,0.025l-0.294-0.012l-0.235-0.043
				l-0.09-0.091l-0.211,0.333c0,0,0.436,0.161,0.42,0.546l-0.85,9.689h0.468l0.85-9.67c0.034-0.385,0.461-0.513,0.461-0.513
				l-0.184-0.348L37.301,22.686z"/>
			<path fill-rule="evenodd" clip-rule="evenodd" fill="#E76E60" d="M37.074,18.693L37.074,18.693
				c0.681,0.028,1.217,0.607,1.19,1.288l-0.064,1.639c-0.027,0.681-0.606,1.216-1.288,1.189l0,0
				c-0.681-0.026-1.216-0.606-1.19-1.288l0.064-1.639C35.813,19.203,36.393,18.667,37.074,18.693L37.074,18.693z"/>
			<path fill-rule="evenodd" clip-rule="evenodd" fill="#31285B" d="M36.633,22.545l0.143-0.018c0,0,0.027,0.031,0.029,0.083
				c0.002,0.051-0.001,0.202-0.001,0.202c-0.053,0.017-0.333,0.063-0.322,0.023C36.483,22.825,36.633,22.545,36.633,22.545
				L36.633,22.545z"/>
			<path fill-rule="evenodd" clip-rule="evenodd" fill="#31285B" d="M37.21,22.568l-0.141-0.029c0,0-0.029,0.029-0.035,0.081
				c-0.006,0.05-0.016,0.201-0.016,0.201c0.051,0.042,0.328,0.089,0.32,0.049C37.337,22.86,37.21,22.568,37.21,22.568L37.21,22.568z
				"/>
			<path fill-rule="evenodd" clip-rule="evenodd" fill="#FFFFFF" d="M38.615,21.074c0.016,0.016,0.18,0.33,0.265,0.481
				c0,0,0.078,0.125,0.009,0.328c-0.068,0.203-0.932,1.85-0.932,1.85s-0.06,0.088-0.148-0.002c-0.089-0.09-0.74-1.191-0.74-1.191
				l1.371-1.337C38.505,21.126,38.601,21.061,38.615,21.074L38.615,21.074z"/>
			<path fill-rule="evenodd" clip-rule="evenodd" fill="#FFFFFF" d="M35.35,20.945c-0.011,0.005-0.205,0.314-0.302,0.46
				c0,0-0.088,0.118-0.034,0.325c0.053,0.208,0.783,1.918,0.783,1.918s0.053,0.091,0.147,0.007c0.095-0.083,0.832-1.128,0.832-1.128
				l-1.262-1.441C35.43,20.98,35.36,20.94,35.35,20.945L35.35,20.945z"/>
			<path fill-rule="evenodd" clip-rule="evenodd" fill="#E76E60" d="M34.625,17.148c-0.019,0-0.039,0-0.057,0.001h0l0,0
				c-0.343,0.021-0.64,0.277-0.698,0.631c-0.069,0.412,0.21,0.801,0.623,0.87c0.413,0.067,0.8-0.211,0.87-0.625
				c0.038-0.239-0.039-0.469-0.192-0.635c-0.013,0.224-0.087,0.491-0.373,0.478l0.07-0.431
				C34.896,17.264,34.743,17.16,34.625,17.148L34.625,17.148z"/>
			<path fill-rule="evenodd" clip-rule="evenodd" fill="#E76E60" d="M40.023,17.932c0.018,0.005,0.035,0.011,0.053,0.017h0.001l0,0
				c0.324,0.119,0.534,0.448,0.489,0.805c-0.052,0.413-0.43,0.706-0.844,0.655c-0.414-0.052-0.708-0.43-0.655-0.844
				c0.03-0.241,0.17-0.44,0.364-0.556c-0.051,0.218-0.056,0.497,0.222,0.565l0.055-0.434C39.729,17.965,39.905,17.91,40.023,17.932
				L40.023,17.932z"/>
			<path fill-rule="evenodd" clip-rule="evenodd" fill="#FAB187" d="M37.866,13.802L37.866,13.802
				c-1.408-0.204-2.729,0.781-2.933,2.19l-0.338,2.33c-0.205,1.409,0.781,2.729,2.189,2.933l0,0c1.409,0.204,2.728-0.781,2.933-2.19
				l0.339-2.329C40.26,15.327,39.274,14.007,37.866,13.802L37.866,13.802z"/>
			<path fill-rule="evenodd" clip-rule="evenodd" fill="#F49778" d="M36.423,21.176c0.117,0.035,0.238,0.061,0.361,0.079l0,0
				c1.409,0.204,2.728-0.781,2.933-2.19l0.339-2.329c0.061-0.421,0.015-0.835-0.116-1.213c-1.036-0.308-1.917-0.556-1.917-0.556
				s-3.263-0.003-2.914,0.898l0.093,0.15c0,0,0.281-0.256,0.78-0.135c0.5,0.122,2.157,0.553,2.704,0.756
				c0.547,0.204,0.694,0.611,0.611,1.164c-0.083,0.552-0.025,0.771,0.111,0.863C39.409,18.663,39.199,21.176,36.423,21.176
				L36.423,21.176z"/>
			<path fill-rule="evenodd" clip-rule="evenodd" fill="#FFFFFF" d="M36.396,19.294c-0.068,0.364,0.172,0.713,0.535,0.78
				c0.365,0.067,0.713-0.173,0.782-0.537h-0.001c0.011-0.063-0.031-0.124-0.093-0.134l-1.087-0.203
				C36.469,19.19,36.407,19.232,36.396,19.294L36.396,19.294z"/>
			<path fill-rule="evenodd" clip-rule="evenodd" fill="#FFFFFF" d="M36.545,19.853c0.096,0.112,0.229,0.193,0.385,0.222
				c0.129,0.024,0.254,0.01,0.367-0.035c-0.025-0.144-0.154-0.272-0.331-0.312C36.798,19.689,36.633,19.744,36.545,19.853
				L36.545,19.853z"/>
			<path fill-rule="evenodd" clip-rule="evenodd" fill="#FFFFFF" d="M37.633,19.409l-1.022-0.191
				c-0.037,0.109-0.006,0.234,0.065,0.273c0.086,0.046,0.83,0.165,0.894,0.117C37.6,19.584,37.62,19.495,37.633,19.409
				L37.633,19.409z"/>
			<path fill-rule="evenodd" clip-rule="evenodd" fill="#E76E60" d="M38.59,19.03c-0.187-0.03-0.361,0.096-0.392,0.282
				c-0.031,0.185,0.095,0.359,0.281,0.391c0.185,0.03,0.36-0.096,0.39-0.282C38.901,19.237,38.775,19.063,38.59,19.03L38.59,19.03z"
				/>
			<path fill-rule="evenodd" clip-rule="evenodd" fill="#E76E60" d="M35.7,18.555c-0.185-0.03-0.36,0.096-0.391,0.281
				c-0.03,0.186,0.095,0.36,0.281,0.391s0.36-0.095,0.391-0.281C36.012,18.761,35.886,18.586,35.7,18.555L35.7,18.555z"/>
			<path fill-rule="evenodd" clip-rule="evenodd" fill="#31285B" d="M36.164,18.258c0.008-0.063-0.007-0.127-0.045-0.178
				c-0.038-0.052-0.094-0.084-0.157-0.094c-0.064-0.009-0.127,0.007-0.178,0.044c-0.051,0.039-0.084,0.095-0.093,0.159
				c-0.008,0.049-0.055,0.084-0.104,0.077s-0.085-0.054-0.078-0.104c0.017-0.111,0.076-0.211,0.166-0.278
				c0.09-0.067,0.203-0.096,0.314-0.079c0.111,0.016,0.211,0.074,0.278,0.166c0.067,0.09,0.096,0.203,0.081,0.314
				c-0.007,0.049-0.054,0.084-0.105,0.078C36.191,18.355,36.156,18.308,36.164,18.258L36.164,18.258z M38.803,18.641
				c0.008-0.063-0.007-0.126-0.046-0.178c-0.038-0.051-0.095-0.085-0.157-0.095c-0.063-0.008-0.127,0.008-0.178,0.046
				c-0.051,0.038-0.084,0.095-0.093,0.158c-0.007,0.049-0.054,0.085-0.104,0.078c-0.051-0.007-0.085-0.054-0.078-0.105
				c0.016-0.111,0.076-0.211,0.166-0.279c0.091-0.067,0.203-0.096,0.314-0.079c0.112,0.016,0.211,0.074,0.279,0.166
				c0.068,0.091,0.096,0.203,0.079,0.314c-0.007,0.051-0.054,0.085-0.104,0.078C38.83,18.739,38.795,18.692,38.803,18.641
				L38.803,18.641z M39.003,17.815c-0.181-0.12-0.417-0.18-0.625-0.094c-0.046,0.021-0.101-0.002-0.121-0.049
				c-0.02-0.047,0.003-0.1,0.051-0.12c0.255-0.107,0.576-0.047,0.799,0.112c0.042,0.03,0.052,0.086,0.023,0.128
				C39.101,17.834,39.044,17.845,39.003,17.815L39.003,17.815z M35.733,17.341c-0.049,0.016-0.101-0.011-0.117-0.058
				c-0.016-0.048,0.011-0.101,0.058-0.116c0.259-0.089,0.583-0.057,0.8,0.119c0.039,0.033,0.045,0.09,0.013,0.128
				c-0.031,0.04-0.09,0.047-0.13,0.015C36.183,17.286,35.94,17.276,35.733,17.341L35.733,17.341z"/>
			<path fill-rule="evenodd" clip-rule="evenodd" fill="#212F61" d="M34.657,17.891c0,0,0.405-0.1,0.501-0.755
				c0.095-0.656,0.071-0.494,0.121-0.836s0.374-0.906,1.067-0.805c0.693,0.101,1.248,0.181,1.248,0.181s0.555,0.08,1.248,0.182
				c0.693,0.1,0.844,0.733,0.793,1.075c-0.049,0.341-0.026,0.18-0.121,0.836c-0.095,0.654,0.265,0.866,0.265,0.866
				c0.076-0.52,0.263-0.701,0.263-0.701s0.101-0.695,0.189-1.304c0.089-0.606,0.036-1.448-0.679-2.125
				c-0.717-0.676-1.673-0.805-1.673-0.805s-0.952-0.148-1.831,0.297c-0.879,0.443-1.168,1.236-1.257,1.844
				c-0.089,0.607-0.189,1.302-0.189,1.302S34.732,17.371,34.657,17.891L34.657,17.891z"/>
			<path fill-rule="evenodd" clip-rule="evenodd" fill="#284188" d="M36.346,15.495c0,0,1.165,1.272,2.92,0.526
				c0,0,0.751-0.443,0.984-0.104c0,0,0.523-1.369-0.654-1.723c0,0,0.271-0.136,0.255-0.312c-0.015-0.177-0.404-0.704-1.618-0.439
				c0,0,0.041-0.437-0.348-0.562c-0.389-0.126-1.687,0.314-1.997,1.206C35.889,14.086,35.637,14.741,36.346,15.495L36.346,15.495z"
				/>
			<path fill-rule="evenodd" clip-rule="evenodd" fill="#3B55A6" d="M40.354,15.055c-0.009-0.063-0.022-0.126-0.041-0.189
				c-0.34,0.178-1.067,0.422-2.198,0.127c-0.999-0.259-1.081-1.266-0.993-2.007c-0.358,0.133-0.749,0.369-1.007,0.695
				c0.002,0.364,0.189,0.891,1.011,1.447C38.291,15.916,39.764,15.344,40.354,15.055L40.354,15.055z"/>
			<path fill-rule="evenodd" clip-rule="evenodd" fill="#FAB187" d="M25.281,11.978l0.004,0.198c0,0,0.098,0.035,0.169,0.196
				c0.073,0.161,0.106,0.28,0.106,0.28l1.039-0.376l0.004-0.082l-0.082-0.248c0,0-0.023-0.044,0.001-0.074l-0.527-0.232
				L25.281,11.978z"/>
			<path fill-rule="evenodd" clip-rule="evenodd" fill="#284188" d="M34.993,21.367c0,0-4.972-2.599-5.759-3.482
				c-0.79-0.882-1.157-2.118-2.36-5.649c0,0-0.043-0.165-0.298-0.147c-0.256,0.017-0.973,0.27-1.071,0.391
				c-0.099,0.121-0.153,0.244-0.117,0.411c0.035,0.167,1.453,5.666,1.855,6.488c0.403,0.822,4.042,4.206,4.799,4.996
				C32.798,25.162,34.993,21.367,34.993,21.367L34.993,21.367z"/>
			<path fill-rule="evenodd" clip-rule="evenodd" fill="#212F61" d="M26.366,12.126c-0.317,0.078-0.783,0.257-0.861,0.353
				c-0.099,0.121-0.153,0.244-0.117,0.411c0.035,0.167,1.453,5.666,1.855,6.488c0.403,0.822,4.042,4.206,4.799,4.996
				c0.236,0.247,0.613,0.044,1.021-0.348c0.033-0.208,0.042-0.339,0.019-0.36c-0.175-0.161-0.407-0.349-1.687-1.416
				c-1.279-1.066-3.267-2.898-3.596-3.577c-0.33-0.678-1.349-4.265-1.677-5.34C25.802,12.297,26.325,12.136,26.366,12.126
				L26.366,12.126z"/>
			<path fill-rule="evenodd" clip-rule="evenodd" fill="#FAB187" d="M26.793,10.793c0.072-0.39,0.286-0.663,0.375-0.754
				c0.116-0.122-0.439-0.459-0.656,0.126c0,0-0.195,0.22-0.308,0.156c-0.111-0.065-0.289-1.776-0.309-1.963
				c-0.019-0.188-0.236-0.201-0.294-0.147c-0.058,0.053-0.026,0.324-0.01,0.668c0.017,0.346,0.032,0.735,0.001,0.77
				c-0.029,0.035-0.108,0.035-0.191-0.151c-0.083-0.187-0.5-1.228-0.593-1.279c-0.093-0.052-0.263,0.044-0.248,0.219
				c0.017,0.175,0.478,1.21,0.495,1.361c0.017,0.152-0.133,0.145-0.201,0.063c-0.068-0.083-0.726-1.134-0.812-1.185
				c-0.085-0.051-0.256,0.052-0.192,0.229s0.652,1.21,0.647,1.297c-0.003,0.086-0.117,0.153-0.309,0.018
				c-0.192-0.135-0.558-0.461-0.629-0.464c-0.071-0.003-0.164,0.215,0.007,0.389c0.171,0.174,0.579,0.62,0.631,0.693
				c0.275,0.389,0.417,0.817,0.674,1.091c0.093,0.099,0.213,0.173,0.349,0.224c0.322,0.118,0.725,0.099,1.034-0.068
				C26.79,11.796,26.694,11.329,26.793,10.793L26.793,10.793z"/>
			<path fill-rule="evenodd" clip-rule="evenodd" fill="#FAB187" d="M35.085,34.085l-0.329,0.28h-2.744c0,0,0.106-0.34,0.286-0.445
				c0,0,0.072-0.034,0.163-0.034c0,0,0.084-0.112,0.212-0.165c0.13-0.053,0.769-0.207,1.104-0.267
				c0.335-0.058,0.659,0.06,0.819,0.06c0.161,0,0.407-0.035,0.407-0.035L35.085,34.085z"/>
			<path fill-rule="evenodd" clip-rule="evenodd" fill="#284188" d="M41.726,23.02c0,0,0.505,0.356,0.746,1.432
				c0.243,1.075,0.854,6.543,0.969,7.493c0.117,0.951,0.079,2.42-2.016,2.42c-2.094,0-4.75,0-5.584,0c-0.833,0-1.085,0-1.085,0
				s0-0.717,0-0.976c0-0.257,0.165-0.345,0.334-0.345c0.17,0,5.265-0.553,5.507-0.619c0.242-0.068,0.358-0.204,0.368-0.496
				c0.01-0.289-0.824-3.653-0.999-4.913C39.792,25.756,40.528,22.984,41.726,23.02L41.726,23.02z"/>
			<path fill-rule="evenodd" clip-rule="evenodd" fill="#212F61" d="M43.478,32.412c0.021,0.9-0.279,1.953-2.052,1.953
				c-2.094,0-4.75,0-5.584,0c-0.833,0-1.085,0-1.085,0V33.6c0.164,0.204,0.491,0.438,1.134,0.438c1.144,0,4.412,0,5.255,0
				C41.948,34.037,43.449,33.454,43.478,32.412L43.478,32.412z"/>
			<path fill-rule="evenodd" clip-rule="evenodd" fill="#212F61" d="M39.966,27.017c0.119,0.852,0.538,2.664,0.794,3.841
				c0.122,0.563,0.208,0.979,0.205,1.072c-0.008,0.269-0.107,0.404-0.312,0.478c0.505-0.084,0.676-0.32,0.762-0.64
				c0.075-0.271,0.008-1.414-0.204-3.528c-0.037-0.37-0.079-0.771-0.125-1.201c-0.17-1.595,0.201-2.655,0.567-3.288
				c0.113-0.193,0.225-0.347,0.321-0.463c-0.14-0.19-0.249-0.267-0.249-0.267C40.528,22.984,39.792,25.756,39.966,27.017
				L39.966,27.017z"/>
			<path fill-rule="evenodd" clip-rule="evenodd" fill="#FCCDB2" d="M36.692,18.866c0,0,0.228-0.238,0.3-0.3
				c0.073-0.062,0.087,0.01,0.08,0.104c-0.009,0.096,0.015,0.277-0.036,0.32c-0.051,0.043-0.303,0-0.356-0.022
				C36.627,18.946,36.692,18.866,36.692,18.866L36.692,18.866z"/>
		</g>
	</g>
	<path fill="#8176B7" d="M19.937,24.228c0-0.041,0.033-0.076,0.075-0.076c0.042,0,0.076,0.035,0.076,0.076v0.341
		c0,0.042-0.033,0.076-0.076,0.076c-0.042,0-0.075-0.034-0.075-0.076V24.228z M19.42,24.505c-0.029-0.03-0.029-0.078,0-0.108
		c0.029-0.029,0.077-0.029,0.107,0l0.24,0.241c0.03,0.029,0.03,0.077,0,0.107c-0.029,0.03-0.077,0.03-0.107,0L19.42,24.505z
		 M19.25,25.066c-0.042,0-0.075-0.035-0.075-0.078c0-0.042,0.034-0.076,0.075-0.076h0.341c0.042,0,0.076,0.034,0.076,0.076
		c0,0.042-0.034,0.078-0.076,0.078H19.25z M19.527,25.58c-0.03,0.031-0.078,0.031-0.107,0c-0.029-0.028-0.029-0.076,0-0.105
		l0.241-0.242c0.03-0.029,0.078-0.029,0.107,0c0.03,0.031,0.03,0.078,0,0.108L19.527,25.58z M20.087,25.75
		c0,0.042-0.033,0.077-0.076,0.077c-0.042,0-0.075-0.035-0.075-0.077v-0.34c0-0.042,0.033-0.076,0.075-0.076
		c0.042,0,0.076,0.034,0.076,0.076V25.75z M20.604,25.475c0.029,0.029,0.029,0.077,0,0.105c-0.03,0.031-0.078,0.031-0.107,0
		l-0.241-0.239c-0.03-0.03-0.03-0.077,0-0.108c0.029-0.029,0.078-0.029,0.106,0L20.604,25.475z M20.772,24.913
		c0.043,0,0.076,0.034,0.076,0.076c0,0.042-0.033,0.078-0.076,0.078h-0.34c-0.042,0-0.075-0.035-0.075-0.078
		c0-0.042,0.034-0.076,0.075-0.076H20.772z M20.497,24.397c0.029-0.029,0.077-0.029,0.107,0c0.029,0.03,0.029,0.078,0,0.108
		l-0.242,0.24c-0.029,0.03-0.077,0.03-0.106,0c-0.03-0.03-0.03-0.078,0-0.107L20.497,24.397z"/>
	<g>
		<path fill-rule="evenodd" clip-rule="evenodd" fill="#A0ADD8" d="M5.141,37.346h0.428c0.078,0,0.143,0.064,0.143,0.142v0.43
			c0,0.078-0.064,0.143-0.143,0.143H5.141c-0.079,0-0.143-0.064-0.143-0.143v-0.43C4.998,37.41,5.062,37.346,5.141,37.346
			L5.141,37.346z"/>
		<path fill-rule="evenodd" clip-rule="evenodd" fill="#A0ADD8" d="M6.604,37.346h0.429c0.078,0,0.143,0.064,0.143,0.142v0.43
			c0,0.078-0.064,0.143-0.143,0.143H6.604c-0.078,0-0.143-0.064-0.143-0.143v-0.43C6.461,37.41,6.526,37.346,6.604,37.346
			L6.604,37.346z"/>
		<path fill-rule="evenodd" clip-rule="evenodd" fill="#DFD8EC" d="M8.066,37.346h0.429c0.078,0,0.143,0.064,0.143,0.142v0.43
			c0,0.078-0.065,0.143-0.143,0.143H8.066c-0.078,0-0.143-0.064-0.143-0.143v-0.43C7.924,37.41,7.988,37.346,8.066,37.346
			L8.066,37.346z"/>
		<path fill-rule="evenodd" clip-rule="evenodd" fill="#DFD8EC" d="M9.531,37.346h0.428c0.079,0,0.143,0.064,0.143,0.142v0.43
			c0,0.078-0.064,0.143-0.143,0.143H9.531c-0.08,0-0.143-0.064-0.143-0.143v-0.43C9.388,37.41,9.451,37.346,9.531,37.346
			L9.531,37.346z"/>
	</g>
	<path fill="#8176B7" d="M14.487,4.214c0-0.042,0.033-0.075,0.076-0.075c0.042,0,0.075,0.033,0.075,0.075v0.34
		c0,0.042-0.033,0.076-0.075,0.076c-0.043,0-0.076-0.034-0.076-0.076V4.214z M13.971,4.491c-0.029-0.03-0.029-0.078,0-0.107
		c0.03-0.029,0.079-0.029,0.107,0l0.241,0.24c0.03,0.03,0.03,0.079,0,0.107c-0.029,0.029-0.077,0.029-0.106,0L13.971,4.491z
		 M13.802,5.051c-0.043,0-0.076-0.034-0.076-0.076c0-0.042,0.033-0.075,0.076-0.075h0.34c0.042,0,0.075,0.033,0.075,0.075
		c0,0.042-0.034,0.076-0.075,0.076H13.802z M14.078,5.567c-0.029,0.029-0.077,0.029-0.107,0c-0.029-0.03-0.029-0.078,0-0.107
		l0.242-0.242c0.029-0.029,0.077-0.029,0.106,0c0.03,0.03,0.03,0.079,0,0.107L14.078,5.567z M14.638,5.737
		c0,0.041-0.033,0.076-0.075,0.076c-0.043,0-0.076-0.035-0.076-0.076V5.396c0-0.042,0.033-0.075,0.076-0.075
		c0.042,0,0.075,0.033,0.075,0.075V5.737z M15.155,5.46c0.029,0.029,0.029,0.077,0,0.107c-0.029,0.029-0.078,0.029-0.107,0
		l-0.241-0.241c-0.03-0.029-0.03-0.077,0-0.107c0.029-0.029,0.077-0.029,0.107,0L15.155,5.46z M15.324,4.901
		c0.042,0,0.075,0.033,0.075,0.075c0,0.042-0.034,0.076-0.075,0.076h-0.34c-0.042,0-0.076-0.034-0.076-0.076
		c0-0.042,0.034-0.075,0.076-0.075H15.324z M15.047,4.384c0.029-0.029,0.078-0.029,0.107,0c0.029,0.029,0.029,0.077,0,0.107
		l-0.241,0.24c-0.03,0.029-0.078,0.029-0.107,0c-0.03-0.029-0.03-0.077,0-0.107L15.047,4.384z"/>
	<g>
		<path fill-rule="evenodd" clip-rule="evenodd" fill="#F2EFF7" d="M18.015,18.849h0.429c0.078,0,0.143,0.063,0.143,0.143v0.429
			c0,0.078-0.065,0.142-0.143,0.142h-0.429c-0.078,0-0.143-0.063-0.143-0.142v-0.429C17.872,18.913,17.937,18.849,18.015,18.849
			L18.015,18.849z"/>
		<path fill-rule="evenodd" clip-rule="evenodd" fill="#F2EFF7" d="M19.479,18.849h0.428c0.079,0,0.143,0.063,0.143,0.143v0.429
			c0,0.078-0.064,0.142-0.143,0.142h-0.428c-0.079,0-0.143-0.063-0.143-0.142v-0.429C19.336,18.913,19.399,18.849,19.479,18.849
			L19.479,18.849z"/>
		<path fill-rule="evenodd" clip-rule="evenodd" fill="#F2EFF7" d="M20.941,18.849h0.429c0.078,0,0.143,0.063,0.143,0.143v0.429
			c0,0.078-0.065,0.142-0.143,0.142h-0.429c-0.078,0-0.143-0.063-0.143-0.142v-0.429C20.799,18.913,20.863,18.849,20.941,18.849
			L20.941,18.849z"/>
		<path fill-rule="evenodd" clip-rule="evenodd" fill="#F2EFF7" d="M22.405,18.849h0.428c0.078,0,0.143,0.063,0.143,0.143v0.429
			c0,0.078-0.064,0.142-0.143,0.142h-0.428c-0.079,0-0.143-0.063-0.143-0.142v-0.429C22.263,18.913,22.326,18.849,22.405,18.849
			L22.405,18.849z"/>
	</g>
	<g>
		<path fill-rule="evenodd" clip-rule="evenodd" fill="#F2EFF7" d="M39.165,41.729h0.429c0.078,0,0.143,0.064,0.143,0.142v0.429
			c0,0.08-0.065,0.144-0.143,0.144h-0.429c-0.078,0-0.142-0.063-0.142-0.144V41.87C39.023,41.793,39.087,41.729,39.165,41.729
			L39.165,41.729z"/>
		<path fill-rule="evenodd" clip-rule="evenodd" fill="#F2EFF7" d="M40.629,41.729h0.428c0.08,0,0.143,0.064,0.143,0.142v0.429
			c0,0.08-0.063,0.144-0.143,0.144h-0.428c-0.079,0-0.143-0.063-0.143-0.144V41.87C40.486,41.793,40.55,41.729,40.629,41.729
			L40.629,41.729z"/>
		<path fill-rule="evenodd" clip-rule="evenodd" fill="#F2EFF7" d="M42.092,41.729h0.429c0.078,0,0.143,0.064,0.143,0.142v0.429
			c0,0.08-0.064,0.144-0.143,0.144h-0.429c-0.079,0-0.143-0.063-0.143-0.144V41.87C41.949,41.793,42.014,41.729,42.092,41.729
			L42.092,41.729z"/>
		<path fill-rule="evenodd" clip-rule="evenodd" fill="#F2EFF7" d="M43.556,41.729h0.428c0.079,0,0.143,0.064,0.143,0.142v0.429
			c0,0.08-0.064,0.144-0.143,0.144h-0.428c-0.079,0-0.143-0.063-0.143-0.144V41.87C43.413,41.793,43.477,41.729,43.556,41.729
			L43.556,41.729z"/>
	</g>
	<g>
		<path fill-rule="evenodd" clip-rule="evenodd" fill="#F2EFF7" d="M41.621,2.88h0.429c0.077,0,0.142,0.063,0.142,0.143V3.45
			c0,0.079-0.065,0.143-0.142,0.143h-0.429c-0.078,0-0.143-0.063-0.143-0.143V3.022C41.478,2.943,41.542,2.88,41.621,2.88
			L41.621,2.88z"/>
		<path fill-rule="evenodd" clip-rule="evenodd" fill="#F2EFF7" d="M43.084,2.88h0.428c0.078,0,0.143,0.063,0.143,0.143V3.45
			c0,0.079-0.065,0.143-0.143,0.143h-0.428c-0.079,0-0.143-0.063-0.143-0.143V3.022C42.942,2.943,43.005,2.88,43.084,2.88
			L43.084,2.88z"/>
		<path fill-rule="evenodd" clip-rule="evenodd" fill="#F2EFF7" d="M44.547,2.88h0.428c0.079,0,0.144,0.063,0.144,0.143V3.45
			c0,0.079-0.065,0.143-0.144,0.143h-0.428c-0.077,0-0.142-0.063-0.142-0.143V3.022C44.405,2.943,44.47,2.88,44.547,2.88
			L44.547,2.88z"/>
		<path fill-rule="evenodd" clip-rule="evenodd" fill="#F2EFF7" d="M46.01,2.88h0.429c0.078,0,0.143,0.063,0.143,0.143V3.45
			c0,0.079-0.065,0.143-0.143,0.143H46.01c-0.078,0-0.142-0.063-0.142-0.143V3.022C45.868,2.943,45.932,2.88,46.01,2.88L46.01,2.88z
			"/>
	</g>
	<g>
		<path fill-rule="evenodd" clip-rule="evenodd" fill="#F2EFF7" d="M62.163,29.277h0.429c0.078,0,0.142,0.063,0.142,0.143v0.428
			c0,0.078-0.063,0.143-0.142,0.143h-0.429c-0.079,0-0.143-0.064-0.143-0.143V29.42C62.021,29.341,62.084,29.277,62.163,29.277
			L62.163,29.277z"/>
		<path fill-rule="evenodd" clip-rule="evenodd" fill="#F2EFF7" d="M63.626,29.277h0.429c0.078,0,0.143,0.063,0.143,0.143v0.428
			c0,0.078-0.064,0.143-0.143,0.143h-0.429c-0.078,0-0.143-0.064-0.143-0.143V29.42C63.483,29.341,63.548,29.277,63.626,29.277
			L63.626,29.277z"/>
		<path fill-rule="evenodd" clip-rule="evenodd" fill="#F2EFF7" d="M65.089,29.277h0.429c0.078,0,0.143,0.063,0.143,0.143v0.428
			c0,0.078-0.064,0.143-0.143,0.143h-0.429c-0.078,0-0.143-0.064-0.143-0.143V29.42C64.946,29.341,65.011,29.277,65.089,29.277
			L65.089,29.277z"/>
		<path fill-rule="evenodd" clip-rule="evenodd" fill="#F2EFF7" d="M66.553,29.277h0.428c0.079,0,0.143,0.063,0.143,0.143v0.428
			c0,0.078-0.063,0.143-0.143,0.143h-0.428c-0.078,0-0.143-0.064-0.143-0.143V29.42C66.41,29.341,66.475,29.277,66.553,29.277
			L66.553,29.277z"/>
	</g>
	<g>
		<path fill-rule="evenodd" clip-rule="evenodd" fill="#284188" d="M12.265,44.046c-0.002-0.862,0.093-1.854,0.333-2.985
			c0.002-0.009,0.004-0.019,0.006-0.026c0.011-0.046,0.047-0.134,0.138-0.108c0.123,0.033,1.129,0.599,2.069,1.556
			c0.94,0.957,0.924-0.482,0.108-1.049c-0.815-0.565-1.649-0.805-1.899-1.021c-0.25-0.217-0.206-0.464-0.206-0.464l0,0
			c0.195-1.096,0.341-2.22,0.442-3.327l0.001-0.001c0,0,0.047-0.24,0.276,0.042c0.229,0.284,1.119,1.271,1.811,1.334
			c0.693,0.066,0.059-1.032-0.919-1.57s-1.097-0.652-1.088-0.784V35.64c0.063-0.871,0.099-1.725,0.112-2.536l0,0
			c0,0,0.04-0.146,0.169-0.041c0.128,0.106,1.102,1.219,1.62,1.102c0.519-0.119,0.015-1.066-0.812-1.398
			c-0.827-0.332-0.971-0.433-0.972-0.555l0,0c-0.008-2.404-0.221-4.341-0.541-5.164c-0.332-0.858,1.778,1.083,3.729,4.249
			c0.168,0.289,0.156,0.455,0.048,0.804c-0.117,0.375-0.245,1.221,0.062,1.023c0.306-0.194,0.348-0.938,0.373-0.952
			c0.019-0.011,0.032,0,0.038,0.006c0.319,0.566,0.627,1.163,0.912,1.783c0.293,0.695-0.099,1.171-0.646,1.849
			c-0.566,0.704-0.464,1.452,0.138,1.137c0.602-0.313,0.882-1.776,0.932-1.814c0.046-0.036,0.079,0.017,0.084,0.027
			c0.398,1.023,0.715,2.095,0.908,3.184c0.041,0.542-0.401,0.989-0.864,1.722c-0.466,0.738-0.108,1.183,0.26,1.082
			c0.367-0.103,0.617-1,0.697-1.059c0.074-0.055,0.097-0.009,0.1,0c0.042,1.054-0.057,2.11-0.341,3.141
			c-0.25,0.905-0.512,1.678-0.782,2.337h-4.778L12.265,44.046z"/>
		<path fill-rule="evenodd" clip-rule="evenodd" fill="#212F61" d="M17.817,45.564c-0.626-8.364-2.776-15.61-2.786-15.646
			c-0.03-0.102-0.134-0.159-0.234-0.129c-0.1,0.029-0.157,0.135-0.128,0.234c0.01,0.036,2.148,7.238,2.774,15.54H17.817z"/>
		<path fill-rule="evenodd" clip-rule="evenodd" fill="#ABA8D3" d="M21.757,34.062c3.624-2.146,4.624,2.321,3.89,4.344
			c-0.447,1.229-2.199,4.325-3.563,6.712c-2.521,1.867-5.646,1.699-5.646,1.699C17.094,41.812,19.091,35.642,21.757,34.062
			L21.757,34.062z"/>
		<path fill-rule="evenodd" clip-rule="evenodd" fill="#DCDAED" d="M18.959,45.564c1.844-5.852,4.667-10.693,4.682-10.719
			c0.042-0.072,0.147-0.107,0.233-0.08c0.087,0.028,0.124,0.109,0.082,0.183c-0.015,0.024-2.813,4.822-4.649,10.616H18.959z"/>
		<path fill-rule="evenodd" clip-rule="evenodd" fill="#DFDEEF" d="M6.232,31.502c1.117-4.223,5.055-1.91,6.746,1.699
			c0.955,2.038,2.608,7.414,4.469,12.363c0,0,0.132,0.498,0.371,1.2c-3.754,0.483-6.5-1.987-6.5-1.987
			C8.049,38.665,5.785,33.189,6.232,31.502L6.232,31.502z"/>
		<path fill-rule="evenodd" clip-rule="evenodd" fill="#FFFFFF" d="M13.872,44.551c-3.592-6.813-5.465-13.43-5.475-13.463
			c-0.027-0.094,0.027-0.189,0.12-0.217c0.093-0.028,0.191,0.027,0.217,0.119c0.01,0.036,2.069,7.303,5.995,14.417L13.872,44.551z"
			/>
	</g>
	<g>
		<rect x="68.587" y="32.215" fill-rule="evenodd" clip-rule="evenodd" fill="#BDBADD" width="4.493" height="1.362"/>
		<rect x="66.621" y="33.851" fill-rule="evenodd" clip-rule="evenodd" fill="#BDBADD" width="4.495" height="1.361"/>
		<path fill-rule="evenodd" clip-rule="evenodd" fill="#BDBADD" d="M71.329,33.851h2.844c0.08,0.443,0.131,0.898,0.146,1.361h-2.99
			V33.851z"/>
		<rect x="68.587" y="35.483" fill-rule="evenodd" clip-rule="evenodd" fill="#BDBADD" width="4.493" height="1.362"/>
		<path fill-rule="evenodd" clip-rule="evenodd" fill="#BDBADD" d="M73.296,35.483h1.029c0.001,0.025,0.001,0.051,0.001,0.075l0,0
			c0,0.437-0.029,0.866-0.087,1.287h-0.943V35.483z"/>
		<path fill-rule="evenodd" clip-rule="evenodd" fill="#BDBADD" d="M71.329,37.118h2.868c-0.077,0.465-0.187,0.921-0.328,1.362
			h-2.54V37.118z"/>
		<path fill="#8176B7" d="M63.794,38.563c0-0.04,0.034-0.075,0.076-0.075c0.041,0,0.075,0.035,0.075,0.075v0.342
			c0,0.042-0.034,0.075-0.075,0.075c-0.042,0-0.076-0.033-0.076-0.075V38.563z M63.278,38.839c-0.03-0.028-0.03-0.076,0-0.106
			c0.029-0.029,0.077-0.029,0.107,0l0.24,0.241c0.029,0.028,0.029,0.077,0,0.108c-0.029,0.028-0.078,0.028-0.107,0L63.278,38.839z
			 M63.108,39.401c-0.042,0-0.076-0.035-0.076-0.077c0-0.041,0.034-0.076,0.076-0.076h0.34c0.042,0,0.076,0.035,0.076,0.076
			c0,0.042-0.034,0.077-0.076,0.077H63.108z M63.386,39.916c-0.03,0.03-0.078,0.03-0.107,0c-0.03-0.029-0.03-0.077,0-0.108
			l0.24-0.24c0.029-0.028,0.078-0.028,0.107,0c0.029,0.029,0.029,0.077,0,0.108L63.386,39.916z M63.945,40.085
			c0,0.042-0.034,0.076-0.075,0.076c-0.042,0-0.076-0.034-0.076-0.076v-0.341c0-0.041,0.034-0.074,0.076-0.074
			c0.041,0,0.075,0.033,0.075,0.074V40.085z M64.461,39.808c0.03,0.031,0.03,0.079,0,0.108c-0.029,0.03-0.077,0.03-0.106,0
			l-0.241-0.24c-0.029-0.031-0.029-0.079,0-0.108c0.03-0.028,0.078-0.028,0.106,0L64.461,39.808z M64.631,39.248
			c0.042,0,0.076,0.035,0.076,0.076c0,0.042-0.034,0.077-0.076,0.077H64.29c-0.041,0-0.075-0.035-0.075-0.077
			c0-0.041,0.034-0.076,0.075-0.076H64.631z M64.354,38.732c0.029-0.029,0.077-0.029,0.106,0c0.03,0.03,0.03,0.078,0,0.106
			l-0.241,0.243c-0.028,0.028-0.076,0.028-0.106,0c-0.029-0.031-0.029-0.08,0-0.108L64.354,38.732z"/>
		<path fill-rule="evenodd" clip-rule="evenodd" fill="#212F61" d="M71.9,31.628c1.045,3.394,1.436,5.237,1.996,6.762
			c0.279-0.896,0.43-1.846,0.43-2.831l0,0V30.69C74.326,21.84,70.611,27.447,71.9,31.628L71.9,31.628z"/>
		<path fill-rule="evenodd" clip-rule="evenodd" fill="#284188" d="M57.508,42.151c-0.296-0.569-0.514-1.214-0.706-1.894
			c-0.864-3.057,2.687,0.33,5.489,4.28c0,0-1.178,0.146-1.532,0C59.816,44.151,57.875,42.857,57.508,42.151z"/>
		<path fill-rule="evenodd" clip-rule="evenodd" fill="#284188" d="M63.829,44.538c-0.874-1.478-1.742-3.424-1.88-5.472
			c-0.287-4.31-0.369-5.664-1.19-6.361c-0.704-0.599,7.867-0.258,11.427,9.191c-1.056,1.268-2.516,2.277-4.084,2.87L63.829,44.538z"
			/>
		<path fill-rule="evenodd" clip-rule="evenodd" fill="#546BB3" d="M61.976,32.555c3.214,2.924,5.904,7.386,7.758,11.42
			c-0.089,0.052-0.217,0.128-0.306,0.177c-1.899-4.143-4.636-8.755-7.969-11.646C61.611,32.512,61.785,32.528,61.976,32.555
			L61.976,32.555z"/>
		<path fill-rule="evenodd" clip-rule="evenodd" fill="#BDBADD" d="M71.094,27.821c0.709,1.745,3.63,5.531,2.99,9.876
			c-0.376,2.554-1.673,4.294-3.4,5.633c-2.994-4.275-5.695-9.316-6.67-13.168C62.053,22.413,68.152,20.564,71.094,27.821
			L71.094,27.821z"/>
		<path fill-rule="evenodd" clip-rule="evenodd" fill="#938AC2" d="M72.438,41.591c-4.146-7.249-6.201-15.926-6.21-15.962
			c-0.02-0.084,0.033-0.167,0.116-0.186c0.083-0.02,0.167,0.031,0.186,0.115c0.009,0.037,2.029,8.604,6.101,15.778L72.438,41.591z"
			/>
		<path fill-rule="evenodd" clip-rule="evenodd" fill="#938AC2" d="M67.553,42.229c-1.381-2.9-4.836-4.029-5.818-3.589
			c-0.804,0.361-2.466,2.465-1.26,5.765c0,0,3.395,1.994,7.835,0.28C68.379,44.658,67.918,42.994,67.553,42.229z"/>
		<path fill-rule="evenodd" clip-rule="evenodd" fill="#ADA6D2" d="M66.307,44.538c0.177-0.473,0.54-1.514,0.587-2.143
			c0.005-0.05-0.032-0.093-0.081-0.095c-0.048-0.005-0.091,0.032-0.094,0.081c-0.044,0.586-0.378,1.554-0.556,2.042
			c-0.405-0.794-0.897-1.628-1.496-2.469c0.315-1.218,0.279-2.118,0.279-2.122c-0.002-0.048-0.043-0.086-0.092-0.085
			c-0.049,0.002-0.086,0.043-0.085,0.093c0.001,0.002,0.033,0.81-0.236,1.927c-0.68-0.932-1.491-1.874-2.46-2.784
			c-0.071-0.067-0.184-0.063-0.25,0.008s-0.063,0.183,0.008,0.249c0.473,0.442,0.906,0.895,1.305,1.348
			c-0.358-0.065-0.905-0.134-1.447-0.079c-0.048,0.004-0.083,0.047-0.079,0.097c0.005,0.048,0.048,0.083,0.097,0.078
			c0.652-0.065,1.314,0.055,1.618,0.123c0.613,0.717,1.141,1.438,1.592,2.146c-0.631-0.061-2.18-0.163-3.684,0.113
			c-0.048,0.01-0.079,0.056-0.071,0.104c0.01,0.048,0.056,0.079,0.104,0.07c1.606-0.295,3.271-0.152,3.771-0.097
			c0.295,0.474,0.558,0.941,0.79,1.395H66.307z"/>
	</g>
	<g>
		<g>
			<path fill-rule="evenodd" clip-rule="evenodd" fill="#A0ADD8" d="M60.104,7.587h0.486c0.091,0,0.163,0.073,0.163,0.163v0.486
				c0,0.089-0.072,0.162-0.163,0.162h-0.486c-0.09,0-0.162-0.073-0.162-0.162V7.75C59.942,7.661,60.015,7.587,60.104,7.587
				L60.104,7.587z"/>
			<path fill-rule="evenodd" clip-rule="evenodd" fill="#A0ADD8" d="M61.768,7.587h0.486c0.09,0,0.163,0.073,0.163,0.163v0.486
				c0,0.089-0.073,0.162-0.163,0.162h-0.486c-0.089,0-0.162-0.073-0.162-0.162V7.75C61.605,7.661,61.679,7.587,61.768,7.587
				L61.768,7.587z"/>
			<path fill-rule="evenodd" clip-rule="evenodd" fill="#A0ADD8" d="M63.431,7.587h0.487c0.09,0,0.162,0.073,0.162,0.163v0.486
				c0,0.089-0.072,0.162-0.162,0.162h-0.487c-0.089,0-0.161-0.073-0.161-0.162V7.75C63.27,7.661,63.342,7.587,63.431,7.587
				L63.431,7.587z"/>
			<path fill-rule="evenodd" clip-rule="evenodd" fill="#A0ADD8" d="M65.094,7.587h0.487c0.089,0,0.162,0.073,0.162,0.163v0.486
				c0,0.089-0.073,0.162-0.162,0.162h-0.487c-0.089,0-0.162-0.073-0.162-0.162V7.75C64.932,7.661,65.005,7.587,65.094,7.587
				L65.094,7.587z"/>
		</g>
		<path fill="#A0ADD8" d="M72.554,6.792c0-0.048,0.038-0.086,0.086-0.086s0.086,0.039,0.086,0.086v0.387
			c0,0.047-0.038,0.086-0.086,0.086s-0.086-0.039-0.086-0.086V6.792z M71.967,7.106c-0.033-0.034-0.033-0.088,0-0.122
			c0.034-0.035,0.089-0.035,0.122,0l0.273,0.274c0.034,0.033,0.034,0.087,0,0.122c-0.034,0.034-0.089,0.034-0.122,0L71.967,7.106z
			 M71.774,7.743c-0.048,0-0.087-0.039-0.087-0.085c0-0.048,0.039-0.086,0.087-0.086h0.388c0.047,0,0.085,0.039,0.085,0.086
			c0,0.047-0.038,0.085-0.085,0.085H71.774z M72.089,8.33c-0.033,0.033-0.088,0.033-0.122,0c-0.033-0.034-0.033-0.089,0-0.122
			l0.273-0.274c0.033-0.033,0.088-0.033,0.122,0c0.034,0.034,0.034,0.089,0,0.122L72.089,8.33z M72.726,8.522
			c0,0.047-0.038,0.085-0.086,0.085s-0.086-0.039-0.086-0.085V8.135c0-0.048,0.038-0.086,0.086-0.086s0.086,0.039,0.086,0.086V8.522
			z M73.313,8.208c0.033,0.033,0.033,0.088,0,0.122c-0.033,0.033-0.089,0.033-0.122,0l-0.273-0.274
			c-0.033-0.033-0.033-0.088,0-0.122c0.032-0.033,0.088-0.033,0.121,0L73.313,8.208z M73.504,7.571c0.049,0,0.087,0.039,0.087,0.086
			c0,0.047-0.038,0.085-0.087,0.085h-0.386c-0.048,0-0.086-0.039-0.086-0.085c0-0.048,0.038-0.086,0.086-0.086H73.504z M73.19,6.985
			c0.033-0.035,0.089-0.035,0.122,0c0.033,0.033,0.033,0.087,0,0.122L73.038,7.38c-0.033,0.034-0.089,0.034-0.121,0
			c-0.033-0.034-0.033-0.088,0-0.122L73.19,6.985z"/>
	</g>
	<path fill="#A0ADD8" d="M5.629,22.087C5.629,22.039,5.668,22,5.716,22c0.047,0,0.085,0.039,0.085,0.086v0.387
		c0,0.047-0.038,0.085-0.085,0.085c-0.048,0-0.087-0.039-0.087-0.085V22.087z M5.043,22.401c-0.034-0.033-0.034-0.089,0-0.122
		c0.034-0.034,0.087-0.034,0.122,0l0.273,0.273c0.034,0.034,0.034,0.088,0,0.122c-0.034,0.033-0.088,0.033-0.121,0L5.043,22.401z
		 M4.851,23.038c-0.048,0-0.086-0.039-0.086-0.086c0-0.048,0.039-0.086,0.086-0.086h0.387c0.047,0,0.085,0.038,0.085,0.086
		c0,0.048-0.039,0.086-0.085,0.086H4.851z M5.165,23.625c-0.034,0.032-0.088,0.032-0.122,0c-0.034-0.035-0.034-0.089,0-0.123
		l0.274-0.273c0.033-0.034,0.087-0.034,0.121,0c0.034,0.033,0.034,0.089,0,0.121L5.165,23.625z M5.801,23.817
		c0,0.048-0.038,0.086-0.085,0.086c-0.048,0-0.087-0.038-0.087-0.086v-0.388c0-0.047,0.039-0.086,0.087-0.086
		c0.047,0,0.085,0.04,0.085,0.086V23.817z M6.388,23.502c0.034,0.034,0.034,0.088,0,0.123c-0.034,0.032-0.089,0.032-0.122,0
		L5.993,23.35c-0.033-0.032-0.033-0.088,0-0.121c0.033-0.034,0.089-0.034,0.122,0L6.388,23.502z M6.581,22.865
		c0.047,0,0.085,0.038,0.085,0.086c0,0.048-0.039,0.086-0.085,0.086H6.193c-0.048,0-0.086-0.039-0.086-0.086
		c0-0.048,0.039-0.086,0.086-0.086H6.581z M6.267,22.279c0.033-0.034,0.087-0.034,0.122,0c0.034,0.033,0.034,0.089,0,0.122
		l-0.273,0.273c-0.033,0.033-0.089,0.033-0.122,0c-0.033-0.034-0.033-0.088,0-0.122L6.267,22.279z"/>
</g>
</svg>
