<?xml version="1.0" encoding="utf-8"?>
<!-- Generator: Adobe Illustrator 16.0.0, SVG Export Plug-In . SVG Version: 6.00 Build 0)  -->
<!DOCTYPE svg PUBLIC "-//W3C//DTD SVG 1.1//EN" "http://www.w3.org/Graphics/SVG/1.1/DTD/svg11.dtd">
<svg version="1.1" id="Layer_1" xmlns="http://www.w3.org/2000/svg" xmlns:xlink="http://www.w3.org/1999/xlink" x="0px" y="0px"
	 width="59.75px" height="50px" viewBox="0 0 59.75 50" enable-background="new 0 0 59.75 50" xml:space="preserve">
<g id="Shadows_1_">
	<g id="Shadow--inject-214">
		<ellipse id="path--inject-214" fill="#C6C8E5" cx="31.115" cy="48.009" rx="26.704" ry="1.559"/>
	</g>
</g>
<g id="Background_Complete">
	<g>
		<g>
			<g>
				<path fill="#A2A4D2" d="M25.295,15.808l-0.188,16.193c-0.666,5.387-10.215,9.663-10.215,9.663s-9.549-4.276-10.215-9.663
					l-0.2-16.193l10.206-3.359L25.295,15.808z"/>
			</g>
			<path fill="#E0E1E0" d="M23.965,16.833L23.8,31.369c-0.582,4.697-8.91,8.428-8.91,8.428s-8.328-3.73-8.909-8.428L5.807,16.833
				l8.901-2.93L23.965,16.833z"/>
		</g>
		
			<path fill="none" stroke="#FFFFFF" stroke-width="3" stroke-linecap="round" stroke-linejoin="round" stroke-miterlimit="10" stroke-dasharray="0,33" d="
			M23.38,17.75l-0.155,13.344c-0.544,4.403-8.352,7.9-8.352,7.9s-7.807-3.497-8.352-7.9L6.357,17.75l8.345-2.746L23.38,17.75z"/>
	</g>
	<g>
		<g>
			<rect x="38.958" y="10.344" fill="#A2A4D2" width="18.37" height="32.234"/>
			<rect x="40.315" y="11.611" fill="#E0E1E0" width="15.679" height="30.967"/>
		</g>
		<g>
			<g>
				<path fill="#FFFFFF" d="M40.753,42.716c-0.028,0-0.055-0.005-0.08-0.017c-0.025-0.01-0.047-0.025-0.066-0.044
					c-0.021-0.02-0.036-0.042-0.045-0.067c-0.01-0.024-0.015-0.051-0.015-0.078c0-0.055,0.022-0.107,0.061-0.146
					c0.046-0.049,0.118-0.068,0.186-0.057c0.012,0.003,0.026,0.008,0.039,0.011c0.012,0.006,0.025,0.013,0.036,0.02
					c0.011,0.009,0.022,0.017,0.032,0.026c0.009,0.009,0.017,0.02,0.024,0.031c0.009,0.011,0.014,0.022,0.019,0.036
					c0.006,0.013,0.01,0.024,0.012,0.039c0.003,0.012,0.004,0.026,0.004,0.04c0,0.027-0.006,0.054-0.016,0.078
					c-0.01,0.025-0.025,0.048-0.043,0.067C40.859,42.694,40.808,42.716,40.753,42.716z"/>
			</g>
			<g>
				<path fill="#FFFFFF" d="M40.546,37.436c0-0.114,0.092-0.207,0.207-0.207l0,0c0.114,0,0.206,0.093,0.206,0.207l0,0
					c0,0.113-0.092,0.206-0.206,0.206l0,0C40.638,37.642,40.546,37.549,40.546,37.436z M40.546,32.362
					c0-0.114,0.092-0.205,0.207-0.205l0,0c0.114,0,0.206,0.091,0.206,0.205l0,0c0,0.113-0.092,0.207-0.206,0.207l0,0
					C40.638,32.569,40.546,32.476,40.546,32.362z M40.546,27.289c0-0.115,0.092-0.207,0.207-0.207l0,0
					c0.114,0,0.206,0.092,0.206,0.207l0,0c0,0.114-0.092,0.206-0.206,0.206l0,0C40.638,27.495,40.546,27.403,40.546,27.289z
					 M40.546,22.215c0-0.114,0.092-0.207,0.207-0.207l0,0c0.114,0,0.206,0.093,0.206,0.207l0,0c0,0.114-0.092,0.207-0.206,0.207l0,0
					C40.638,22.422,40.546,22.329,40.546,22.215z M40.546,17.143c0-0.115,0.092-0.207,0.207-0.207l0,0
					c0.114,0,0.206,0.092,0.206,0.207l0,0c0,0.115-0.092,0.207-0.206,0.207l0,0C40.638,17.35,40.546,17.257,40.546,17.143z"/>
			</g>
			<g>
				<path fill="#FFFFFF" d="M40.753,12.275c-0.055,0-0.109-0.021-0.146-0.061c-0.01-0.01-0.02-0.02-0.026-0.032
					c-0.007-0.011-0.014-0.021-0.019-0.034c-0.005-0.014-0.01-0.026-0.012-0.04c-0.002-0.012-0.004-0.026-0.004-0.04
					c0-0.054,0.022-0.108,0.061-0.146c0.007-0.01,0.019-0.018,0.03-0.026c0.011-0.007,0.022-0.014,0.036-0.018
					c0.012-0.005,0.026-0.01,0.039-0.012c0.027-0.006,0.053-0.006,0.081,0c0.012,0.002,0.026,0.007,0.039,0.012
					c0.012,0.004,0.024,0.011,0.036,0.018c0.011,0.008,0.021,0.016,0.031,0.026c0.039,0.038,0.061,0.092,0.061,0.146
					c0,0.013-0.001,0.027-0.004,0.04c-0.003,0.014-0.007,0.026-0.013,0.04c-0.005,0.013-0.01,0.023-0.019,0.034
					c-0.007,0.012-0.016,0.022-0.025,0.032C40.861,12.254,40.807,12.275,40.753,12.275z"/>
			</g>
			<g>
				<path fill="#FFFFFF" d="M50.38,12.069c0-0.115,0.092-0.207,0.206-0.207l0,0c0.115,0,0.208,0.092,0.208,0.207l0,0
					c0,0.114-0.092,0.206-0.208,0.206l0,0C50.472,12.275,50.38,12.183,50.38,12.069z M45.463,12.069
					c0-0.115,0.093-0.207,0.206-0.207l0,0c0.115,0,0.208,0.092,0.208,0.207l0,0c0,0.114-0.092,0.206-0.208,0.206l0,0
					C45.556,12.275,45.463,12.183,45.463,12.069z"/>
			</g>
			<g>
				<path fill="#FFFFFF" d="M55.504,12.275c-0.015,0-0.026-0.001-0.04-0.004c-0.015-0.002-0.027-0.007-0.039-0.01
					c-0.013-0.006-0.024-0.013-0.035-0.02c-0.012-0.008-0.022-0.017-0.032-0.026c-0.039-0.039-0.061-0.091-0.061-0.146
					c0-0.054,0.021-0.108,0.061-0.146c0.01-0.01,0.021-0.018,0.032-0.024c0.011-0.009,0.022-0.016,0.035-0.02
					c0.012-0.005,0.024-0.01,0.039-0.012c0.025-0.006,0.053-0.006,0.082,0c0.011,0.002,0.023,0.007,0.037,0.012
					c0.012,0.004,0.023,0.011,0.035,0.02c0.012,0.007,0.022,0.015,0.03,0.024c0.039,0.038,0.062,0.092,0.062,0.146
					c0,0.055-0.022,0.107-0.062,0.146c-0.008,0.01-0.019,0.018-0.03,0.026c-0.012,0.007-0.023,0.014-0.035,0.02
					c-0.014,0.003-0.026,0.008-0.037,0.01C55.532,12.274,55.517,12.275,55.504,12.275z"/>
			</g>
			<g>
				<path fill="#FFFFFF" d="M55.296,37.436c0-0.114,0.094-0.207,0.208-0.207l0,0c0.114,0,0.206,0.093,0.206,0.207l0,0
					c0,0.113-0.092,0.206-0.206,0.206l0,0C55.39,37.642,55.296,37.549,55.296,37.436z M55.296,32.362
					c0-0.114,0.094-0.205,0.208-0.205l0,0c0.114,0,0.206,0.091,0.206,0.205l0,0c0,0.113-0.092,0.207-0.206,0.207l0,0
					C55.39,32.569,55.296,32.476,55.296,32.362z M55.296,27.289c0-0.115,0.094-0.207,0.208-0.207l0,0
					c0.114,0,0.206,0.092,0.206,0.207l0,0c0,0.114-0.092,0.206-0.206,0.206l0,0C55.39,27.495,55.296,27.403,55.296,27.289z
					 M55.296,22.215c0-0.114,0.094-0.207,0.208-0.207l0,0c0.114,0,0.206,0.092,0.206,0.207l0,0c0,0.114-0.092,0.207-0.206,0.207l0,0
					C55.39,22.422,55.296,22.329,55.296,22.215z M55.296,17.143c0-0.115,0.094-0.207,0.208-0.207l0,0
					c0.114,0,0.206,0.092,0.206,0.207l0,0c0,0.115-0.092,0.207-0.206,0.207l0,0C55.39,17.35,55.296,17.257,55.296,17.143z"/>
			</g>
			<g>
				<path fill="#FFFFFF" d="M55.504,42.716c-0.055,0-0.107-0.021-0.146-0.061s-0.062-0.091-0.062-0.146
					c0-0.056,0.022-0.107,0.062-0.146c0.009-0.01,0.021-0.018,0.032-0.026c0.011-0.007,0.022-0.014,0.035-0.02
					c0.012-0.003,0.024-0.008,0.039-0.011c0.025-0.006,0.053-0.006,0.081,0c0.012,0.003,0.025,0.008,0.038,0.011
					c0.012,0.006,0.023,0.013,0.035,0.02c0.012,0.009,0.022,0.017,0.03,0.026c0.039,0.039,0.062,0.091,0.062,0.146
					c0,0.055-0.021,0.106-0.062,0.146C55.61,42.694,55.559,42.716,55.504,42.716z"/>
			</g>
		</g>
	</g>
	<g>
		<rect x="4.091" y="42.631" fill="#E0E1E0" width="5.676" height="0.034"/>
		<rect x="15.644" y="42.355" fill="#C6C8E5" width="5.692" height="0.033"/>
		<rect x="27.366" y="42.355" fill="#C6C8E5" width="1.377" height="0.033"/>
		<rect x="8.607" y="43.531" fill="#E0E1E0" width="6.371" height="0.034"/>
		<rect x="34.034" y="42.613" fill="#C6C8E5" width="2.975" height="0.034"/>
		<rect x="38.235" y="42.613" fill="#C6C8E5" width="3.847" height="0.034"/>
		<rect x="52.034" y="43.195" fill="#C6C8E5" width="8.6" height="0.035"/>
	</g>
	<g>
		<g>
			<rect x="31.912" y="1.568" fill="#7D80BE" width="6.751" height="6.751"/>
			<rect x="38.664" y="1.568" fill="#E0E1E0" width="0.171" height="6.751"/>
			<rect x="32.535" y="2.192" fill="#C6C8E5" width="5.504" height="5.503"/>
			<rect x="32.537" y="2.192" fill="#E0E1E0" width="0.051" height="5.503"/>
		</g>
		<g>
			<g>
				<ellipse fill="#E0E1E0" cx="35.339" cy="4.372" rx="1.074" ry="1.367"/>
				<rect x="34.778" y="5.299" fill="#E0E1E0" width="1.131" height="1.131"/>
				<path fill="#E0E1E0" d="M33.235,7.695h4.144V7.311c0-0.733-0.594-1.328-1.329-1.328h-1.488c-0.733,0-1.327,0.594-1.327,1.328
					V7.695L33.235,7.695z"/>
			</g>
			<path fill="#E0E1E0" d="M33.131,5.399c0,0.225,0.408,0.408,0.408,0.408s0.409-0.183,0.409-0.408c0-0.107-0.151-0.167-0.247-0.14
				c-0.106,0.03-0.162,0.155-0.162,0.155s-0.1-0.133-0.202-0.166C33.234,5.216,33.131,5.285,33.131,5.399z"/>
			<path fill="#E0E1E0" d="M36.796,4.395c0,0.295,0.536,0.536,0.536,0.536s0.536-0.24,0.536-0.536c0-0.14-0.197-0.22-0.324-0.184
				c-0.141,0.04-0.212,0.204-0.212,0.204S37.2,4.24,37.067,4.198C36.932,4.155,36.796,4.246,36.796,4.395z"/>
		</g>
	</g>
	<g>
		<path fill="#C6C8E5" d="M25.015,38.102c0.063,0.397,0.351,0.74,0.373,1.143c0.018,0.314-0.13,0.611-0.203,0.918
			c-0.073,0.307-0.038,0.688,0.232,0.851c0.188,0.113,0.436,0.078,0.622-0.036c0.186-0.113,0.32-0.296,0.435-0.481
			c0.421-0.678,0.654-1.471,0.667-2.269c0.006-0.339-0.034-0.696-0.233-0.97C26.289,36.404,24.858,37.109,25.015,38.102z"/>
		<g>
			<path fill="#C6C8E5" d="M24.51,37.048c0.057,0.065,0.138,0.108,0.222,0.13c0.105,0.027,0.228,0.019,0.304-0.059
				c0.071-0.074,0.08-0.189,0.069-0.291c-0.013-0.127-0.048-0.252-0.125-0.353c-0.077-0.1-0.2-0.17-0.326-0.159
				c-0.125,0.011-0.244,0.113-0.251,0.239C24.396,36.691,24.419,36.942,24.51,37.048z"/>
			<path fill="#C6C8E5" d="M25.649,36.22c-0.069-0.094-0.169-0.138-0.268-0.118c-0.097,0.021-0.187,0.111-0.199,0.213
				c-0.003,0.03-0.004,0.065-0.004,0.101c0,0.052,0.005,0.107,0.017,0.16c0.015,0.058,0.039,0.11,0.072,0.143
				c0.046,0.047,0.107,0.075,0.172,0.088c0.08,0.015,0.171,0.003,0.229-0.057c0.06-0.063,0.076-0.155,0.072-0.242
				C25.736,36.405,25.71,36.302,25.649,36.22z"/>
			<path fill="#C6C8E5" d="M26.286,36.185c-0.068-0.097-0.156-0.123-0.241-0.091c-0.081,0.029-0.154,0.117-0.17,0.208
				c-0.006,0.03-0.009,0.062-0.01,0.091c-0.001,0.048-0.001,0.1,0.01,0.146c0.012,0.052,0.037,0.099,0.07,0.125
				c0.042,0.034,0.092,0.055,0.143,0.059c0.065,0.005,0.137-0.012,0.184-0.061c0.056-0.058,0.08-0.14,0.083-0.219
				C26.359,36.354,26.339,36.26,26.286,36.185z"/>
			<path fill="#C6C8E5" d="M26.854,36.317c-0.067-0.102-0.144-0.107-0.214-0.065c-0.064,0.04-0.122,0.126-0.142,0.205
				c-0.008,0.028-0.013,0.057-0.016,0.081c-0.005,0.043-0.007,0.09,0.003,0.133c0.01,0.045,0.036,0.086,0.071,0.108
				s0.074,0.03,0.114,0.027c0.05-0.004,0.103-0.025,0.139-0.063c0.051-0.055,0.083-0.125,0.093-0.198
				C26.913,36.468,26.899,36.384,26.854,36.317z"/>
			<path fill="#C6C8E5" d="M26.967,36.875c-0.007,0.032-0.012,0.066-0.003,0.1c0.007,0.033,0.029,0.064,0.06,0.077
				c0.053,0.021,0.112-0.016,0.151-0.059c0.04-0.042,0.072-0.093,0.087-0.148c0.015-0.056,0.01-0.119-0.021-0.168
				C27.115,36.478,26.988,36.776,26.967,36.875z"/>
		</g>
	</g>
	<g>
		<path fill="#C6C8E5" d="M27.078,47.3c0.093-0.326,0.146-0.682,0.024-0.998c-0.38-0.981-1.944-0.668-2.047,0.331L27.078,47.3z"/>
		<g>
			<path fill="#C6C8E5" d="M24.837,45.484c0.039,0.078,0.105,0.14,0.181,0.183c0.094,0.053,0.216,0.077,0.309,0.021
				c0.088-0.054,0.125-0.162,0.142-0.264c0.02-0.124,0.018-0.256-0.03-0.372c-0.049-0.117-0.15-0.216-0.274-0.237
				c-0.125-0.022-0.265,0.047-0.304,0.167C24.819,45.111,24.776,45.36,24.837,45.484z"/>
			<path fill="#C6C8E5" d="M26.151,44.977c-0.043-0.108-0.128-0.177-0.229-0.183c-0.099-0.006-0.209,0.06-0.246,0.154
				c-0.012,0.029-0.022,0.062-0.03,0.097c-0.013,0.05-0.023,0.105-0.025,0.159c-0.001,0.06,0.009,0.116,0.032,0.156
				c0.034,0.057,0.085,0.1,0.144,0.128c0.074,0.035,0.166,0.048,0.236,0.005c0.074-0.046,0.113-0.131,0.132-0.215
				C26.188,45.179,26.188,45.072,26.151,44.977z"/>
			<path fill="#C6C8E5" d="M26.776,45.106c-0.041-0.111-0.119-0.158-0.209-0.149c-0.086,0.008-0.179,0.074-0.219,0.157
				c-0.013,0.027-0.024,0.057-0.033,0.085c-0.015,0.046-0.026,0.096-0.028,0.146c-0.001,0.052,0.01,0.104,0.036,0.139
				c0.031,0.043,0.074,0.074,0.124,0.092c0.061,0.022,0.134,0.025,0.192-0.011c0.069-0.042,0.113-0.115,0.137-0.19
				C26.803,45.288,26.808,45.191,26.776,45.106z"/>
			<path fill="#C6C8E5" d="M27.292,45.38c-0.039-0.114-0.111-0.14-0.19-0.116c-0.073,0.021-0.15,0.09-0.19,0.161
				c-0.015,0.025-0.027,0.052-0.036,0.073c-0.016,0.041-0.03,0.085-0.031,0.129c-0.001,0.048,0.012,0.094,0.041,0.124
				c0.028,0.029,0.064,0.049,0.103,0.056c0.05,0.009,0.106,0.002,0.151-0.026c0.063-0.039,0.112-0.098,0.141-0.166
				C27.309,45.541,27.318,45.456,27.292,45.38z"/>
			<path fill="#C6C8E5" d="M27.257,45.948c-0.016,0.03-0.029,0.062-0.03,0.096c-0.001,0.034,0.011,0.069,0.038,0.09
				c0.046,0.034,0.112,0.014,0.161-0.018s0.094-0.071,0.123-0.122c0.028-0.05,0.04-0.111,0.022-0.167
				C27.502,45.603,27.303,45.858,27.257,45.948z"/>
		</g>
	</g>
	<g>
		<path fill="#C6C8E5" d="M21.649,41.454c0.05,0.398-0.132,0.809-0.042,1.201c0.07,0.308,0.294,0.552,0.449,0.826
			c0.154,0.274,0.227,0.651,0.013,0.882c-0.148,0.159-0.397,0.195-0.608,0.137c-0.21-0.058-0.388-0.196-0.551-0.342
			c-0.592-0.535-1.036-1.232-1.27-1.995c-0.099-0.324-0.16-0.679-0.044-0.997C19.956,40.177,21.526,40.457,21.649,41.454z"/>
		<g>
			<path fill="#C6C8E5" d="M21.843,40.302c-0.037,0.078-0.102,0.142-0.177,0.186c-0.094,0.055-0.215,0.082-0.309,0.027
				c-0.089-0.052-0.128-0.159-0.147-0.26c-0.023-0.124-0.023-0.256,0.022-0.373s0.146-0.218,0.27-0.243
				c0.124-0.025,0.266,0.041,0.307,0.161C21.854,39.928,21.901,40.176,21.843,40.302z"/>
			<path fill="#C6C8E5" d="M20.52,39.821c0.04-0.109,0.124-0.18,0.225-0.188c0.099-0.008,0.21,0.055,0.25,0.149
				c0.012,0.028,0.022,0.062,0.032,0.095c0.014,0.051,0.024,0.105,0.028,0.159c0.002,0.06-0.006,0.116-0.029,0.157
				c-0.032,0.058-0.082,0.102-0.14,0.131c-0.073,0.036-0.165,0.05-0.236,0.01c-0.075-0.044-0.116-0.129-0.136-0.212
				C20.487,40.024,20.484,39.917,20.52,39.821z"/>
			<path fill="#C6C8E5" d="M19.897,39.964c0.039-0.111,0.116-0.16,0.207-0.154c0.086,0.007,0.181,0.071,0.221,0.153
				c0.014,0.026,0.026,0.056,0.036,0.084c0.015,0.046,0.028,0.095,0.03,0.144c0.002,0.054-0.009,0.104-0.033,0.141
				c-0.03,0.044-0.073,0.076-0.122,0.095c-0.061,0.023-0.135,0.027-0.193-0.007c-0.07-0.041-0.115-0.112-0.14-0.187
				C19.874,40.146,19.867,40.051,19.897,39.964z"/>
			<path fill="#C6C8E5" d="M19.387,40.249c0.037-0.115,0.109-0.144,0.188-0.121c0.073,0.02,0.152,0.087,0.193,0.157
				c0.016,0.024,0.029,0.051,0.038,0.072c0.017,0.041,0.032,0.084,0.034,0.129c0.003,0.047-0.01,0.093-0.038,0.123
				c-0.027,0.031-0.063,0.052-0.102,0.059c-0.049,0.011-0.106,0.004-0.151-0.022c-0.064-0.038-0.114-0.097-0.145-0.164
				C19.374,40.41,19.363,40.325,19.387,40.249z"/>
			<path fill="#C6C8E5" d="M19.435,40.815c0.016,0.03,0.029,0.062,0.031,0.096c0.002,0.032-0.01,0.068-0.036,0.09
				c-0.045,0.036-0.113,0.015-0.162-0.015s-0.095-0.068-0.125-0.118s-0.042-0.111-0.026-0.167
				C19.182,40.475,19.387,40.727,19.435,40.815z"/>
		</g>
	</g>
	<g>
		<g>
			<path fill="#A2A4D2" d="M18.269,8.388c-0.884,0.124-1.703-0.496-1.827-1.379c-0.123-0.884,0.496-1.704,1.379-1.827
				s1.704,0.495,1.827,1.379C19.772,7.446,19.153,8.265,18.269,8.388z M17.941,6.035c-0.414,0.057-0.705,0.441-0.646,0.855
				c0.058,0.415,0.442,0.704,0.855,0.646c0.415-0.058,0.705-0.442,0.647-0.856C18.739,6.266,18.355,5.977,17.941,6.035z"/>
		</g>
		<g>
			<g>
				
					<rect x="17.322" y="1.986" transform="matrix(-0.9904 0.1383 -0.1383 -0.9904 35.6373 5.447)" fill="#A2A4D2" width="0.614" height="3.951"/>
			</g>
			<g>
				<g>
					
						<rect x="17.057" y="1.535" transform="matrix(-0.9904 0.1383 -0.1383 -0.9904 35.3529 1.2269)" fill="#A2A4D2" width="1.154" height="0.614"/>
				</g>
				<g>
					
						<rect x="17.237" y="2.312" transform="matrix(-0.9905 0.1378 -0.1378 -0.9905 35.7484 2.762)" fill="#A2A4D2" width="1.084" height="0.614"/>
				</g>
				<g>
					
						<rect x="17.53" y="3.403" transform="matrix(-0.9904 0.1383 -0.1383 -0.9904 36.346 4.8952)" fill="#A2A4D2" width="0.946" height="0.614"/>
				</g>
			</g>
		</g>
	</g>
</g>
<g id="Fingerprint">
	<g>
		<g>
			<g>
				<path fill="#5274B9" d="M17.845,19.609c0.168,1.918-1.251,3.473-3.169,3.473c-1.918,0-3.609-1.555-3.776-3.473
					c-0.167-1.917,1.251-3.473,3.169-3.473S17.678,17.691,17.845,19.609z"/>
			</g>
			<g opacity="0.8">
				<path fill="#FFFFFF" d="M17.845,19.609c0.168,1.918-1.251,3.473-3.169,3.473c-1.918,0-3.609-1.555-3.776-3.473
					c-0.167-1.917,1.251-3.473,3.169-3.473S17.678,17.691,17.845,19.609z"/>
			</g>
		</g>
		<g>
			<g>
				<path fill="#5274B9" d="M12.754,17.431c-0.042,0-0.084-0.02-0.11-0.055c-0.045-0.062-0.033-0.148,0.028-0.193
					c0.438-0.325,0.988-0.496,1.593-0.496c0.001,0,0.001,0,0.002,0c0.076,0,0.138,0.062,0.138,0.137
					c0,0.076-0.062,0.138-0.138,0.138c0,0-0.001,0-0.002,0c-0.545,0-1.039,0.153-1.428,0.442
					C12.812,17.421,12.783,17.431,12.754,17.431z"/>
			</g>
			<g>
				<path fill="#5274B9" d="M13.406,22.169c-0.021,0-0.044-0.005-0.065-0.017c-0.854-0.457-1.451-1.269-1.639-2.229
					c-0.169-0.863,0.032-1.718,0.552-2.345c0.049-0.058,0.136-0.066,0.195-0.018c0.058,0.048,0.066,0.135,0.018,0.194
					c-0.467,0.563-0.647,1.334-0.494,2.116c0.172,0.878,0.718,1.622,1.499,2.04c0.067,0.036,0.093,0.12,0.056,0.187
					C13.503,22.143,13.455,22.169,13.406,22.169z"/>
			</g>
			<g>
				<path fill="#5274B9" d="M14.784,22.528c-0.297,0-0.602-0.048-0.907-0.146c-0.072-0.024-0.112-0.102-0.088-0.173
					c0.022-0.072,0.101-0.113,0.173-0.089c0.847,0.273,1.693,0.122,2.32-0.417c0.639-0.548,0.937-1.403,0.795-2.286
					c-0.012-0.075,0.039-0.146,0.115-0.158c0.074-0.012,0.146,0.039,0.158,0.114c0.156,0.978-0.175,1.927-0.888,2.538
					C15.987,22.318,15.404,22.528,14.784,22.528z"/>
			</g>
			<g>
				<path fill="#5274B9" d="M17.101,19.067c-0.059,0-0.112-0.038-0.131-0.096c-0.254-0.789-0.85-1.453-1.594-1.776
					c-0.07-0.031-0.102-0.112-0.071-0.181c0.03-0.069,0.111-0.102,0.181-0.071c0.816,0.354,1.47,1.082,1.748,1.944
					c0.023,0.072-0.017,0.15-0.089,0.173C17.129,19.064,17.115,19.067,17.101,19.067z"/>
			</g>
			<g>
				<path fill="#5274B9" d="M14.93,17.04c-0.01,0-0.021-0.002-0.032-0.004c-0.207-0.049-0.42-0.074-0.632-0.074
					c-0.076,0-0.138-0.062-0.138-0.138c0.001-0.076,0.062-0.137,0.138-0.137l0,0c0.234,0,0.467,0.027,0.695,0.082
					c0.074,0.017,0.12,0.091,0.102,0.166C15.049,16.997,14.992,17.04,14.93,17.04z"/>
			</g>
			<g>
				<path fill="#5274B9" d="M12.501,20.331c-0.056,0-0.109-0.035-0.129-0.09c-0.259-0.704-0.171-1.445,0.241-2.036
					c0.395-0.565,1.023-0.89,1.725-0.89c0,0,0,0,0.001,0c0.076,0,0.137,0.062,0.137,0.138c0,0.076-0.062,0.137-0.137,0.137l0,0
					c0,0,0,0-0.001,0c-0.61,0-1.156,0.281-1.499,0.773c-0.36,0.515-0.436,1.165-0.209,1.782c0.026,0.072-0.01,0.151-0.082,0.177
					C12.533,20.328,12.517,20.331,12.501,20.331z"/>
			</g>
			<g>
				<path fill="#5274B9" d="M14.686,21.903c0,0-0.001,0-0.001,0c-0.8-0.009-1.609-0.466-2.064-1.167
					c-0.042-0.064-0.023-0.149,0.041-0.191c0.063-0.041,0.149-0.022,0.19,0.042c0.406,0.625,1.126,1.033,1.836,1.04
					c0.076,0.001,0.137,0.063,0.136,0.14C14.823,21.842,14.761,21.903,14.686,21.903z"/>
			</g>
			<g>
				<path fill="#5274B9" d="M15.2,21.843c-0.062,0-0.118-0.042-0.133-0.105c-0.019-0.073,0.026-0.148,0.1-0.166
					c1.117-0.278,1.406-1.255,1.315-2.007c-0.12-0.98-0.895-1.974-2.144-1.975c-0.076,0-0.138-0.062-0.138-0.138
					c0-0.076,0.062-0.138,0.138-0.138l0,0c1.409,0.002,2.282,1.117,2.417,2.218c0.138,1.136-0.459,2.042-1.521,2.306
					C15.222,21.842,15.211,21.843,15.2,21.843z"/>
			</g>
			<g>
				<path fill="#5274B9" d="M13.775,18.351c-0.052,0-0.102-0.03-0.125-0.08c-0.032-0.07-0.002-0.151,0.067-0.184
					c0.205-0.095,0.437-0.145,0.669-0.145c0.077,0,0.138,0.062,0.138,0.138c0,0.076-0.061,0.138-0.138,0.138
					c-0.193,0-0.385,0.041-0.554,0.12C13.814,18.346,13.795,18.351,13.775,18.351z"/>
			</g>
			<g>
				<path fill="#5274B9" d="M14.66,21.261c-0.693,0-1.333-0.423-1.639-1.089c-0.286-0.62-0.202-1.269,0.224-1.736
					c0.052-0.057,0.138-0.06,0.194-0.01c0.056,0.051,0.061,0.139,0.009,0.195c-0.348,0.383-0.415,0.92-0.177,1.436
					c0.268,0.583,0.835,0.946,1.434,0.928c0.486-0.016,0.891-0.281,1.083-0.711c0.216-0.488,0.119-1.065-0.255-1.504
					c-0.049-0.058-0.042-0.145,0.016-0.194c0.058-0.05,0.145-0.042,0.194,0.015c0.443,0.521,0.557,1.209,0.297,1.795
					c-0.235,0.529-0.731,0.855-1.326,0.875C14.695,21.26,14.677,21.261,14.66,21.261z"/>
			</g>
			<g>
				<path fill="#5274B9" d="M15.241,18.472c-0.025,0-0.051-0.007-0.074-0.021c-0.238-0.152-0.507-0.232-0.779-0.232
					c-0.076,0-0.138-0.062-0.138-0.138c0-0.076,0.062-0.138,0.138-0.138l0,0c0.324,0,0.646,0.095,0.928,0.275
					c0.063,0.041,0.083,0.126,0.042,0.19C15.331,18.449,15.286,18.472,15.241,18.472z"/>
			</g>
			<g>
				<path fill="#5274B9" d="M14.591,20.64c-0.318,0-0.625-0.142-0.842-0.4c-0.273-0.324-0.335-0.754-0.164-1.122
					c0.159-0.342,0.481-0.547,0.863-0.547l0,0c0.077,0,0.138,0.062,0.138,0.137c0,0.077-0.061,0.138-0.138,0.138
					c-0.271,0-0.5,0.145-0.613,0.388c-0.126,0.27-0.078,0.587,0.125,0.829c0.207,0.246,0.522,0.354,0.823,0.278
					c0.255-0.064,0.44-0.25,0.494-0.5c0.016-0.074,0.088-0.122,0.164-0.106c0.074,0.016,0.121,0.089,0.105,0.164
					c-0.077,0.355-0.336,0.621-0.697,0.709C14.764,20.63,14.677,20.64,14.591,20.64z"/>
			</g>
			<g>
				<path fill="#5274B9" d="M15.389,19.549c-0.059,0-0.113-0.037-0.131-0.096c-0.11-0.351-0.45-0.606-0.809-0.606
					c-0.077,0-0.138-0.062-0.138-0.138c0-0.076,0.062-0.137,0.138-0.137l0,0c0.477,0,0.927,0.337,1.072,0.799
					c0.022,0.073-0.018,0.149-0.09,0.173C15.417,19.547,15.402,19.549,15.389,19.549z"/>
			</g>
			<g>
				<g>
					<path fill="#5274B9" d="M14.624,20.066c-0.074,0-0.135-0.059-0.137-0.134c-0.002-0.076,0.058-0.139,0.134-0.141
						c0.125-0.004,0.144-0.094,0.144-0.146c0-0.081-0.053-0.204-0.199-0.208c-0.039,0.001-0.079,0.018-0.106,0.048
						c-0.028,0.031-0.042,0.072-0.039,0.12c0.004,0.075-0.054,0.141-0.129,0.146c-0.076,0.005-0.141-0.054-0.146-0.13
						c-0.007-0.122,0.032-0.237,0.11-0.322c0.078-0.085,0.188-0.134,0.31-0.138c0.311,0.008,0.475,0.255,0.475,0.483
						c0,0.241-0.17,0.415-0.412,0.421C14.627,20.066,14.626,20.066,14.624,20.066z"/>
				</g>
			</g>
			<g>
				<g>
					<path fill="#5274B9" d="M18.174,19.608c0.167,1.919-1.251,3.474-3.17,3.474c-0.049,0-0.1-0.002-0.149-0.004
						c1.827-0.094,3.152-1.612,2.99-3.47c-0.163-1.856-1.754-3.374-3.597-3.468c0.049-0.002,0.099-0.004,0.148-0.004
						C16.315,16.136,18.006,17.691,18.174,19.608z"/>
				</g>
				<g opacity="0.4" enable-background="new    ">
					<path fill="#FFFFFF" d="M18.174,19.608c0.167,1.919-1.251,3.474-3.17,3.474c-0.049,0-0.1-0.002-0.149-0.004
						c1.827-0.094,3.152-1.612,2.99-3.47c-0.163-1.856-1.754-3.374-3.597-3.468c0.049-0.002,0.099-0.004,0.148-0.004
						C16.315,16.136,18.006,17.691,18.174,19.608z"/>
				</g>
			</g>
		</g>
	</g>
</g>
<g id="Verification_Code">
	<g>
		<g>
			<path fill="#5274B9" d="M20.98,2.68c0.003,0.041,0.01,0.083,0.018,0.123c0.051,0.266,0.193,0.506,0.388,0.685
				c0.225,0.207,0.521,0.334,0.836,0.334h11.637c0.589,0,1.035-0.446,1.045-1.019c0.001-0.04,0-0.082-0.003-0.123
				c-0.027-0.314-0.18-0.6-0.406-0.806c-0.224-0.207-0.521-0.334-0.836-0.334H22.022C21.392,1.54,20.925,2.051,20.98,2.68z"/>
			<path opacity="0.8" fill="#C6C8E5" enable-background="new    " d="M20.98,2.68c0.003,0.041,0.01,0.083,0.018,0.123
				c0.051,0.266,0.193,0.506,0.388,0.685c0.225,0.207,0.521,0.334,0.836,0.334h11.637c0.589,0,1.035-0.446,1.045-1.019
				c0.001-0.04,0-0.082-0.003-0.123c-0.027-0.314-0.18-0.6-0.406-0.806c-0.224-0.207-0.521-0.334-0.836-0.334H22.022
				C21.392,1.54,20.925,2.051,20.98,2.68z"/>
		</g>
		<g>
			<path fill="#5274B9" d="M34.904,2.803c0,0.037-0.002,0.074-0.008,0.11c-0.037-0.297-0.186-0.567-0.401-0.763
				c-0.224-0.207-0.521-0.335-0.836-0.335l-12.375,0.02c0.186-0.183,0.445-0.294,0.738-0.294h11.636
				c0.315,0,0.611,0.128,0.836,0.334c0.224,0.206,0.378,0.492,0.407,0.806C34.904,2.721,34.905,2.763,34.904,2.803z"/>
			<path opacity="0.5" fill="#FFFFFF" enable-background="new    " d="M34.904,2.803c0,0.037-0.002,0.074-0.008,0.11
				c-0.037-0.297-0.186-0.567-0.401-0.763c-0.224-0.207-0.521-0.335-0.836-0.335l-12.375,0.02c0.186-0.183,0.445-0.294,0.738-0.294
				h11.636c0.315,0,0.611,0.128,0.836,0.334c0.224,0.206,0.378,0.492,0.407,0.806C34.904,2.721,34.905,2.763,34.904,2.803z"/>
		</g>
		<g>
			<g>
				<path fill="#5274B9" d="M32.9,2.091l0.048,0.556l0.518-0.192l0.124,0.274l-0.53,0.176l0.381,0.467l-0.238,0.176l-0.371-0.485
					l-0.281,0.485l-0.26-0.176l0.294-0.467l-0.556-0.176l0.075-0.272l0.556,0.186l-0.048-0.551H32.9L32.9,2.091z"/>
				<path fill="#5274B9" d="M29.718,2.091l0.049,0.556l0.518-0.192l0.123,0.274l-0.529,0.176l0.38,0.467l-0.237,0.176L29.65,3.062
					l-0.28,0.485l-0.261-0.176l0.294-0.467l-0.555-0.176l0.074-0.272l0.557,0.186L29.43,2.091H29.718L29.718,2.091z"/>
				<path fill="#5274B9" d="M26.535,2.091l0.048,0.556l0.519-0.192l0.123,0.274l-0.529,0.176l0.38,0.467l-0.238,0.176l-0.37-0.485
					l-0.281,0.485l-0.261-0.176l0.294-0.467l-0.556-0.176l0.075-0.272l0.557,0.186l-0.049-0.551H26.535L26.535,2.091z"/>
				<path fill="#5274B9" d="M23.353,2.091l0.049,0.556l0.519-0.192l0.123,0.274l-0.53,0.176l0.381,0.467l-0.238,0.176l-0.371-0.485
					l-0.281,0.485l-0.261-0.176l0.294-0.467l-0.555-0.176l0.075-0.272l0.556,0.186l-0.048-0.551H23.353L23.353,2.091z"/>
			</g>
		</g>
		<g>
			<g>
				<rect x="30.523" y="1" fill="#5274B9" width="0.542" height="0.138"/>
			</g>
			<g>
				<rect x="31.628" y="1" fill="#5274B9" width="1.77" height="0.138"/>
			</g>
		</g>
	</g>
</g>
<g id="Face_recognition">
	<g>
		<g>
			<path opacity="0.8" fill="#5274B9" enable-background="new    " d="M51.469,6.137l-0.563,6.442
				c-0.018,0.194-0.104,0.37-0.236,0.503c-0.152,0.159-0.364,0.257-0.591,0.257h-4.472c-0.166,0-0.315-0.053-0.43-0.144
				c-0.182-0.136-0.287-0.362-0.264-0.617l0.563-6.442c0.038-0.42,0.407-0.76,0.828-0.76h4.471
				C51.196,5.377,51.506,5.717,51.469,6.137z"/>
			<path opacity="0.8" fill="#A2A4D2" enable-background="new    " d="M51.469,6.137l-0.563,6.442
				c-0.018,0.194-0.104,0.37-0.236,0.503c-0.152,0.159-0.364,0.257-0.591,0.257h-4.472c-0.166,0-0.315-0.053-0.43-0.144
				c-0.182-0.136-0.287-0.362-0.264-0.617l0.563-6.442c0.038-0.42,0.407-0.76,0.828-0.76h4.471
				C51.196,5.377,51.506,5.717,51.469,6.137z"/>
		</g>
		<g>
			<g>
				<path fill="#5274B9" d="M45.89,7.175c-0.004,0-0.008,0-0.012,0c-0.076-0.006-0.132-0.073-0.125-0.149l0.051-0.588
					c0.006-0.071,0.065-0.126,0.137-0.126h0.622c0.076,0,0.137,0.062,0.137,0.138c0,0.076-0.061,0.138-0.137,0.138h-0.496
					l-0.041,0.463C46.02,7.121,45.96,7.175,45.89,7.175z"/>
			</g>
			<g>
				<path fill="#5274B9" d="M50.898,7.175c-0.004,0-0.008,0-0.013,0c-0.075-0.006-0.131-0.073-0.125-0.149l0.039-0.439h-0.471
					c-0.077,0-0.138-0.062-0.138-0.138c0-0.076,0.061-0.138,0.138-0.138h0.621c0.039,0,0.076,0.016,0.103,0.045
					c0.025,0.028,0.039,0.066,0.035,0.105l-0.051,0.589C51.028,7.121,50.968,7.175,50.898,7.175z"/>
			</g>
			<g>
				<path fill="#5274B9" d="M46.123,11.621h-0.622c-0.039,0-0.076-0.016-0.102-0.045c-0.026-0.028-0.039-0.067-0.036-0.105
					l0.052-0.588c0.008-0.076,0.076-0.133,0.149-0.125c0.076,0.007,0.132,0.073,0.125,0.149l-0.038,0.439h0.471
					c0.077,0,0.138,0.062,0.138,0.138S46.199,11.621,46.123,11.621z"/>
			</g>
			<g>
				<path fill="#5274B9" d="M50.508,11.621h-0.622c-0.076,0-0.137-0.062-0.137-0.138s0.061-0.138,0.137-0.138h0.496l0.041-0.463
					c0.007-0.076,0.076-0.132,0.148-0.125c0.077,0.007,0.132,0.073,0.125,0.149l-0.051,0.589
					C50.639,11.566,50.581,11.621,50.508,11.621z"/>
			</g>
		</g>
		<g>
			<path fill="#C6C8E5" d="M50.11,8.945c-0.108,1.232-1.017,2.229-2.028,2.229c-1.012,0-1.745-0.998-1.637-2.229
				c0.107-1.231,1.014-2.229,2.027-2.229C49.484,6.715,50.218,7.714,50.11,8.945z"/>
			<polygon fill="#C6C8E5" points="48.82,12.375 47.036,12.375 47.191,10.591 48.975,10.591 			"/>
			<path fill="#C6C8E5" d="M50.906,12.579c-0.018,0.194-0.104,0.37-0.236,0.503c-0.152,0.159-0.364,0.257-0.591,0.257h-4.472
				c-0.166,0-0.315-0.053-0.43-0.144c-0.182-0.136-0.287-0.362-0.264-0.617c0,0,2.055-0.65,2.308-0.65c0.252,0,1.589,0,1.589,0
				L50.906,12.579z"/>
		</g>
		<g>
			
				<rect x="51.618" y="8.019" transform="matrix(-0.9967 -0.0813 0.0813 -0.9967 102.4479 22.7481)" fill="#5274B9" width="0.138" height="2.538"/>
		</g>
		<g>
			
				<rect x="51.847" y="6.866" transform="matrix(-0.9964 -0.0848 0.0848 -0.9964 103.0426 18.6078)" fill="#5274B9" width="0.138" height="0.498"/>
		</g>
	</g>
</g>
<g id="Verified">
	<g>
		<g>
			<g>
				<g>
					<rect x="46.532" y="22.228" fill="#2E3683" width="0.542" height="0.138"/>
				</g>
				<g>
					<rect x="47.637" y="22.228" fill="#2E3683" width="1.77" height="0.138"/>
				</g>
			</g>
			<g>
				<g>
					<path fill="#5274B9" d="M52.645,19.876l-0.343,3.926c-0.03,0.354-0.343,0.641-0.695,0.641c-0.354,0-0.617-0.287-0.585-0.641
						l0.344-3.926c0.109-1.268-0.831-2.3-2.099-2.3h-1.405c-1.268,0-2.389,1.032-2.501,2.3l-0.14,1.603H43.94l0.141-1.603
						c0.172-1.975,1.919-3.582,3.893-3.582h1.404C51.353,16.295,52.818,17.902,52.645,19.876z"/>
				</g>
				<g opacity="0.5" enable-background="new    ">
					<path fill="#FFFFFF" d="M52.645,19.876l-0.343,3.926c-0.03,0.354-0.343,0.641-0.695,0.641c-0.354,0-0.617-0.287-0.585-0.641
						l0.344-3.926c0.109-1.268-0.831-2.3-2.099-2.3h-1.405c-1.268,0-2.389,1.032-2.501,2.3l-0.14,1.603H43.94l0.141-1.603
						c0.172-1.975,1.919-3.582,3.893-3.582h1.404C51.353,16.295,52.818,17.902,52.645,19.876z"/>
				</g>
				<g>
					<g>
						<path fill="#2E3683" d="M52.738,23.658l-0.669,7.649c-0.042,0.484-0.468,0.875-0.952,0.875h-7.649
							c-0.483,0-0.841-0.391-0.799-0.875l0.668-7.649c0.027-0.313,0.216-0.587,0.476-0.742c0.142-0.084,0.305-0.134,0.477-0.134
							h7.648c0.166,0,0.316,0.046,0.441,0.125C52.621,23.062,52.766,23.34,52.738,23.658z"/>
					</g>
				</g>
			</g>
		</g>
		<path fill="#C6C8E5" d="M44.784,27l1.987,3.06l6.556-6.555c0.059-0.058-0.021-0.147-0.086-0.098l-6.247,4.896l-1.18-1.901
			L44.784,27z"/>
	</g>
</g>
<g id="Eye_scan">
	<g>
		<g>
			<g>
				<path fill="#5274B9" d="M13.48,12.206H8.502c-0.468,0-0.88-0.379-0.921-0.846L7.146,6.382C7.105,5.915,7.451,5.536,7.918,5.536
					h4.978c0.468,0,0.879,0.379,0.92,0.846l0.436,4.978C14.293,11.827,13.947,12.206,13.48,12.206z"/>
				<path fill="#A2A4D2" d="M13.48,12.206H8.502c-0.468,0-0.88-0.379-0.921-0.846L7.146,6.382C7.105,5.915,7.451,5.536,7.918,5.536
					h4.978c0.468,0,0.879,0.379,0.92,0.846l0.436,4.978C14.293,11.827,13.947,12.206,13.48,12.206z"/>
			</g>
			<g>
				<path fill="#FFFFFF" d="M7.584,9.372c0,0,1.768-2.463,3.073-2.401c1.305,0.064,3.467,2.343,3.467,2.343
					S10.933,10.99,7.584,9.372z"/>
				<g>
					<g>
						<path fill="#273238" d="M7.641,9.412l-0.112-0.08c0.071-0.1,1.759-2.431,3.079-2.431c0.018,0,0.035,0,0.053,0.001
							c1.317,0.063,3.425,2.27,3.514,2.364l-0.1,0.095c-0.021-0.022-2.159-2.26-3.421-2.321c-0.015-0.001-0.031-0.001-0.047-0.001
							C9.358,7.039,7.658,9.388,7.641,9.412z"/>
					</g>
					<g>
						<g>
							<g>
								<path fill="#273238" d="M7.4,9.459c-0.267,0-0.613-0.099-0.736-0.477C6.653,8.946,6.672,8.907,6.709,8.895
									c0.036-0.011,0.075,0.009,0.087,0.044C6.954,9.427,7.545,9.31,7.57,9.305c0.037-0.007,0.074,0.016,0.082,0.054
									C7.66,9.396,7.636,9.432,7.598,9.439C7.543,9.451,7.475,9.459,7.4,9.459z"/>
							</g>
							<g>
								<path fill="#273238" d="M8.451,8.401c-0.015,0-0.029-0.004-0.042-0.014C8.389,8.371,7.9,7.993,7.775,7.609
									C7.763,7.573,7.783,7.534,7.819,7.522c0.036-0.012,0.075,0.008,0.086,0.044c0.112,0.343,0.583,0.707,0.587,0.71
									c0.03,0.023,0.036,0.067,0.012,0.097C8.492,8.392,8.472,8.401,8.451,8.401z"/>
							</g>
							<g>
								<path fill="#273238" d="M9.463,7.463c0,0-0.001,0-0.001,0c-0.038-0.001-0.068-0.032-0.067-0.07
									c0.002-0.088-0.217-0.665-0.299-0.881C9.061,6.42,9.036,6.355,9.031,6.337C9.02,6.301,9.041,6.263,9.077,6.251
									c0.037-0.011,0.074,0.01,0.085,0.046c0.005,0.016,0.029,0.078,0.061,0.165C9.416,6.968,9.534,7.3,9.532,7.396
									C9.531,7.433,9.5,7.463,9.463,7.463z"/>
							</g>
							<g>
								<path fill="#273238" d="M10.657,7.041c-0.036,0-0.066-0.028-0.069-0.063l-0.097-1.109c-0.003-0.038,0.025-0.071,0.063-0.074
									c0.039-0.005,0.071,0.024,0.075,0.063l0.097,1.109c0.003,0.038-0.025,0.072-0.063,0.075
									C10.661,7.041,10.659,7.041,10.657,7.041z"/>
							</g>
						</g>
						<g>
							<g>
								<path fill="#273238" d="M14.331,9.384c-0.111,0-0.194-0.017-0.201-0.018c-0.037-0.007-0.061-0.044-0.054-0.081
									c0.007-0.038,0.043-0.062,0.081-0.054c0.003,0,0.336,0.064,0.543-0.081c0.087-0.062,0.139-0.151,0.157-0.273
									c0.005-0.038,0.041-0.063,0.079-0.058c0.037,0.006,0.063,0.041,0.058,0.079c-0.024,0.159-0.097,0.282-0.216,0.366
									C14.64,9.361,14.464,9.384,14.331,9.384z"/>
							</g>
							<g>
								<path fill="#273238" d="M13.094,8.328c-0.019,0-0.038-0.008-0.051-0.023c-0.025-0.028-0.022-0.071,0.006-0.097
									c0.004-0.003,0.407-0.364,0.458-0.703c0.006-0.038,0.042-0.063,0.078-0.058c0.038,0.005,0.063,0.041,0.058,0.079
									c-0.058,0.388-0.485,0.769-0.503,0.785C13.127,8.322,13.111,8.328,13.094,8.328z"/>
							</g>
							<g>
								<path fill="#273238" d="M11.931,7.527c-0.004,0-0.008,0-0.012-0.001c-0.037-0.006-0.063-0.042-0.056-0.079
									c0.001-0.009,0.151-0.895,0.179-1.076c0.005-0.038,0.041-0.063,0.078-0.058c0.038,0.006,0.064,0.041,0.058,0.079
									C12.15,6.574,12,7.461,11.998,7.47C11.993,7.504,11.963,7.527,11.931,7.527z"/>
							</g>
						</g>
					</g>
				</g>
				<path fill="#2E3683" d="M12.354,8.532c0.075,0.862-0.563,1.561-1.424,1.561c-0.861,0-1.621-0.699-1.696-1.561
					C9.158,7.67,9.795,6.971,10.657,6.971C11.519,6.971,12.278,7.67,12.354,8.532z"/>
				<path opacity="0.3" fill="#010101" enable-background="new    " d="M11.438,8.532c0.002-0.034,0.002-0.069,0-0.105
					c-0.032-0.366-0.356-0.662-0.723-0.662c-0.364,0-0.636,0.296-0.604,0.662c0.003,0.036,0.009,0.071,0.019,0.105H9.234
					c-0.076-0.862,0.561-1.561,1.424-1.561c0.86,0,1.621,0.698,1.697,1.561H11.438z"/>
				<path opacity="0.7" fill="#010101" enable-background="new    " d="M11.438,8.427c0.002,0.036,0.003,0.071,0,0.105
					c-0.023,0.317-0.276,0.558-0.606,0.558c-0.33,0-0.625-0.241-0.702-0.558c-0.01-0.034-0.016-0.069-0.019-0.105
					c-0.032-0.366,0.239-0.662,0.604-0.662C11.082,7.765,11.405,8.061,11.438,8.427z"/>
				<path opacity="0.7" fill="#FFFFFF" enable-background="new    " d="M11.798,7.777c0.025,0.298-0.194,0.54-0.493,0.54
					c-0.298,0-0.561-0.242-0.587-0.54c-0.026-0.298,0.194-0.54,0.493-0.54C11.509,7.237,11.771,7.479,11.798,7.777z"/>
			</g>
		</g>
		<g>
			<g>
				<rect x="9.122" y="4.917" fill="#5274B9" width="0.543" height="0.138"/>
			</g>
			<g>
				<rect x="10.228" y="4.917" fill="#5274B9" width="1.77" height="0.138"/>
			</g>
		</g>
	</g>
</g>
<circle fill="#2E3683" cx="21.185" cy="17.059" r="1.592"/>
<circle fill="#2E3683" cx="23.38" cy="17.813" r="1.592"/>
<g id="Character_1_">
	<path fill="#FBB474" d="M34.692,15.008l0.048,0.056l0.063,0.074c0.045,0.048,0.089,0.099,0.139,0.146
		c0.094,0.1,0.198,0.195,0.302,0.294c0.209,0.193,0.429,0.374,0.657,0.543c0.233,0.173,0.478,0.332,0.723,0.489
		c0.133,0.074,0.25,0.152,0.38,0.223l0.299,0.166c0.042,0.02,0.092,0.022,0.138,0.008c0.096-0.028,0.65-0.577,0.826-0.78
		c0.39-0.449,0.983-1.037,1.302-1.539l0.364,0.492c-0.225,0.614-0.525,1.199-0.891,1.741c-0.197,0.292-0.433,0.558-0.702,0.787
		c-0.162,0.136-0.345,0.246-0.541,0.324c-0.248,0.099-0.521,0.119-0.781,0.058c-0.068-0.016-0.134-0.038-0.198-0.066l-0.124-0.054
		l-0.222-0.101c-0.151-0.068-0.295-0.146-0.441-0.219c-0.292-0.156-0.575-0.327-0.848-0.514c-0.276-0.189-0.54-0.394-0.792-0.614
		c-0.131-0.114-0.249-0.23-0.368-0.355c-0.06-0.062-0.12-0.127-0.178-0.194l-0.086-0.104c-0.031-0.039-0.054-0.068-0.098-0.127
		L34.692,15.008z"/>
	<path fill="#FBB474" d="M39.521,14.764l0.641-1.366l0.609,1.093c0,0-0.4,0.69-0.836,0.689L39.521,14.764z"/>
	<polygon fill="#FBB474" points="40.88,12.831 41.524,13.66 40.771,14.49 40.161,13.398 	"/>
	<g>
		<path fill="#5274B9" d="M40.656,14.867h1.015c0.06,0,0.108-0.045,0.114-0.104l0.212-2.434c0.007-0.067-0.046-0.124-0.114-0.124
			h-1.015c-0.06,0-0.11,0.045-0.114,0.104l-0.213,2.433C40.536,14.81,40.588,14.867,40.656,14.867z"/>
		<polygon opacity="0.3" fill="#FFFFFF" enable-background="new    " points="40.666,14.624 41.682,14.624 41.873,12.449 
			40.855,12.449 		"/>
	</g>
	<path fill="#FBB474" d="M40.6,14.315L40.6,14.315l0.181-0.093c0.091-0.046,0.175-0.106,0.251-0.176l0.032-0.121
		c-0.039-0.065-0.117-0.097-0.191-0.077l-0.15,0.042l-0.745,0.056l-0.018,0.313l0.217,0.337l0.075,0.002
		C40.425,14.606,40.574,14.484,40.6,14.315z"/>
	<path fill="#273238" d="M33.396,13.673c0.516-0.094,4.158,3.065,4.158,3.065l-1.08,1.583c0,0-3.983-2.773-3.861-3.443
		C32.741,14.18,32.643,13.81,33.396,13.673z"/>
	<path opacity="0.2" fill="#010101" enable-background="new    " d="M33.855,14.689l-0.04,1.658
		c0.415,0.321,1.908,1.466,1.908,1.466L33.855,14.689z"/>
	<polygon fill="#FBB474" points="30.967,46.501 32.19,46.621 32.577,43.788 31.354,43.667 	"/>
	<polygon fill="#FBB474" points="18.94,29.876 18.626,31.066 21.27,32.206 21.817,30.998 	"/>
	<g>
		<path fill="#5274B9" d="M33.063,46.866c0.105,0.013,0.212-0.011,0.302-0.066c0.041-0.034,0.062-0.087,0.056-0.14
			c0-0.033-0.019-0.063-0.046-0.08c-0.148-0.088-0.647,0.148-0.703,0.175c-0.011,0.006-0.018,0.018-0.016,0.03
			c0.001,0.012,0.01,0.021,0.022,0.024C32.804,46.84,32.933,46.859,33.063,46.866z M33.286,46.619
			c0.019-0.001,0.038,0.003,0.054,0.012c0.012,0.007,0.02,0.02,0.02,0.032c0.003,0.035-0.011,0.069-0.036,0.093
			c-0.076,0.065-0.279,0.07-0.551,0.017c0.163-0.08,0.338-0.133,0.518-0.154L33.286,46.619z"/>
		<path fill="#5274B9" d="M32.684,46.812l0.011-0.002c0.149-0.062,0.447-0.319,0.427-0.459c-0.007-0.031-0.026-0.075-0.106-0.087
			c-0.058-0.009-0.119,0.006-0.164,0.042c-0.159,0.123-0.197,0.455-0.199,0.468c-0.002,0.01,0,0.021,0.007,0.028
			C32.667,46.809,32.674,46.813,32.684,46.812z M32.988,46.321l0.017-0.004c0.053,0.009,0.055,0.028,0.056,0.036
			c0.012,0.084-0.192,0.287-0.345,0.369c0.016-0.141,0.073-0.271,0.168-0.375c0.031-0.021,0.068-0.031,0.106-0.026H32.988z"/>
	</g>
	<path fill="#273238" d="M32.129,46.128l-1.107,0.046c-0.05,0-0.091,0.038-0.095,0.088l-0.264,1.537
		c-0.006,0.11,0.079,0.204,0.188,0.21c0.007,0.001,0.015,0.001,0.022,0c0.48-0.024,0.712-0.06,1.321-0.081
		c0.373-0.013,1.52,0.123,2.023,0.007s0.415-0.621,0.195-0.617c-0.708,0.013-1.525-0.448-1.934-0.987
		C32.418,46.284,32.205,46.123,32.129,46.128z"/>
	<path fill="#273238" d="M19.188,31.224l0.562-0.956c0.027-0.041,0.017-0.096-0.022-0.127l-1.147-1.056
		c-0.089-0.065-0.214-0.045-0.279,0.044c-0.004,0.006-0.008,0.013-0.012,0.02c-0.24,0.417-0.335,0.631-0.648,1.153
		c-0.192,0.319-0.928,1.211-1.104,1.697c-0.175,0.485,0.297,0.685,0.414,0.499c0.373-0.603,1.203-1.039,1.879-1.09
		C18.9,31.381,19.151,31.29,19.188,31.224z"/>
	<polygon opacity="0.2" fill="#010101" enable-background="new    " points="32.577,43.788 32.377,45.248 31.154,45.129 
		31.353,43.669 	"/>
	<polygon opacity="0.2" fill="#010101" enable-background="new    " points="22.63,31.292 22.065,32.566 20.364,31.815 
		20.798,30.601 	"/>
	<path fill="#273238" d="M34.176,15.132c0.698,1.187-0.155,2.188-0.868,5.736l-4.604,0.013c0.075-1.912,0.066-3.458-0.75-7.219
		c-0.076-0.342,0.141-0.682,0.483-0.757c0.044-0.009,0.089-0.015,0.135-0.015c0.38,0,0.859,0.014,1.345,0.063
		c0.767,0.063,1.529,0.177,2.279,0.345c0.639,0.153,0.795,0.238,1.2,0.374C33.632,13.754,33.918,14.397,34.176,15.132z"/>
	<path fill="#2E3683" d="M33.479,21.108c0,0,2.584,7.475,2.521,11.069c-0.035,2.06-0.19,5.896-0.812,8.595
		c-0.507,2.201-2.572,3.608-2.572,3.608l-1.657-0.099c0,0-0.894-3.36-0.738-4.698c0.309-2.661,1.228-4.661,1.117-7.105
		c-0.177-4.004-1.361-11.434-1.361-11.434L33.479,21.108z"/>
	<polygon fill="#273238" points="30.631,44.712 32.965,44.851 33.178,44.149 30.569,43.908 	"/>
	<path opacity="0.2" fill="#010101" enable-background="new    " d="M30.926,36.208c0.003-0.004,0.005-0.014,0.013-0.013
		c1.467,0.144,2.482-1.973,2.24-4.863L32.4,23.963L30.926,36.208z"/>
	<path fill="#2E3683" d="M32.319,21.045c0,0,2.054,13.143-2.218,14.623c-2.255,0.854-4.151-0.071-6.397-1.065
		c-1.298-0.574-2.921-2.129-2.921-2.129l0.624-1.699c0,0,1.475-0.479,3.438-0.174c2.19,0.341,2.282,0.96,3.061,0.493
		c1.636-4.045-1.179-7.242,0.734-10.054L32.319,21.045z"/>
	<polygon fill="#273238" points="21.528,30.453 20.694,32.654 21.309,33.125 22.299,30.504 	"/>
	<g>
		<path fill="#FBB474" d="M21.185,18.576c-0.209,0.308-1.263,0.1-1.263,0.1l-0.224-1.307l1.295,0.519L21.185,18.576z"/>
		<path fill="#FBB474" d="M19.957,17.301l0.202,1.357l-0.779,0.117c-0.086,0.007-0.165-0.051-0.184-0.135l-0.297-0.973
			c-0.01-0.046,0.019-0.093,0.064-0.106L19.957,17.301z"/>
		<path fill="#FBB474" d="M19.61,17.917l0.444,0.079l0.418-0.316l-0.162-0.116c-0.109-0.078-0.187-0.195-0.216-0.326
			c-0.032-0.143-0.054-0.294-0.057-0.42l-0.002-0.047c-0.011-0.085-0.077-0.153-0.162-0.166l-0.11,0.081
			c-0.07,0.15-0.02,0.325-0.029,0.442l-0.017,0.228l-0.178,0.077L19.61,17.917z"/>
	</g>
	<path fill="#FBB474" d="M28.178,13.403l-2.606,3.586l-4.789,0.94v0.786c0,0,4.499,0.333,5.507-0.256
		c1.009-0.589,2.708-4.154,2.708-4.154L28.178,13.403z"/>
	<path fill="#273238" d="M28.147,6.516c-1.093-0.367-2.362,0.312-2.863,1.35c-0.5,1.039-0.325,2.313,0.238,3.319
		c0.17,0.304,0.374,0.59,0.511,0.909c0.139,0.319,0.208,0.686,0.095,1.015c-0.112,0.33-0.228,0.541-0.636,0.487
		c0,0-0.005-0.225,0.156-0.198l0,0c0,0-0.331,0.184-0.46,0.064c0.149,0.231,0.549,0.146,0.679-0.097
		c0.192-0.366-0.162-0.86-0.575-0.855c-0.413,0.005-0.749,0.422-0.735,0.835c0.013,0.413,0.317,0.78,0.694,0.949
		c-0.224,0.044-0.469-0.087-0.556-0.297c0.187,0.491,0.799,0.708,1.316,0.611c0.516-0.096,0.953-0.428,1.357-0.763
		c0.545-0.452,1.114-1.022,1.097-1.73c-0.013-0.527-0.351-0.98-0.636-1.424s-0.535-0.987-0.354-1.483
		c0.153-0.42,0.569-0.674,0.936-0.929c0.264-0.184,0.801-0.593,0.738-0.979C29.09,6.937,28.456,6.62,28.147,6.516z"/>
	<path fill="#273238" d="M25.683,18.775l-0.721-1.91l0.165,0.014c0.273,0.023,0.535-0.115,0.668-0.355
		c0.548-0.98,1.974-3.47,2.375-3.593c0.572-0.17,1.159,0.288,1.381,0.962c0.163,0.498-1.512,2.629-2.29,3.841
		C26.573,18.809,25.683,18.775,25.683,18.775z"/>
	<g>
		<path fill="#5274B9" d="M18.643,31.851c0,0-0.001,0.009-0.001,0.015c0.021,0.055,0.067,0.094,0.124,0.105
			c0.034,0.012,0.072,0.002,0.098-0.021c0.117-0.104,0.042-0.549,0.035-0.594c-0.001-0.013-0.01-0.021-0.022-0.023
			c-0.01-0.003-0.022,0.001-0.029,0.011C18.754,31.475,18.606,31.71,18.643,31.851z M18.855,31.437
			c0.026,0.175,0.037,0.415-0.028,0.471c-0.012,0.01-0.029,0.014-0.044,0.006c-0.038-0.006-0.069-0.031-0.083-0.067
			c-0.024-0.075,0.026-0.226,0.155-0.406V31.437z"/>
		<path fill="#5274B9" d="M18.853,31.413c0.037,0.148,0.176,0.402,0.3,0.433c0.046,0.009,0.094-0.016,0.114-0.059
			c0.021-0.04,0.024-0.088,0.008-0.13c-0.056-0.17-0.382-0.311-0.395-0.317c-0.009-0.006-0.02-0.006-0.029-0.001
			c-0.008,0.007-0.012,0.017-0.011,0.026C18.842,31.381,18.847,31.397,18.853,31.413z M19.227,31.683
			c0.007,0.025,0.002,0.051-0.012,0.071c-0.018,0.033-0.036,0.033-0.049,0.03c-0.084-0.017-0.213-0.225-0.254-0.369
			c0.106,0.054,0.277,0.154,0.311,0.258C19.224,31.677,19.225,31.68,19.227,31.683L19.227,31.683z"/>
	</g>
	<g>
		<path fill="#5274B9" d="M28.687,20.647l-0.127,0.448c-0.018,0.034,0.024,0.07,0.082,0.069l4.751-0.006
			c0.045,0.003,0.083-0.022,0.086-0.05l0.044-0.448c0.001-0.03-0.037-0.057-0.086-0.056l-4.668,0.006
			C28.736,20.607,28.706,20.622,28.687,20.647z"/>
		<path opacity="0.5" fill="#FFFFFF" enable-background="new    " d="M28.687,20.647l-0.127,0.448
			c-0.018,0.034,0.024,0.07,0.082,0.069l4.751-0.006c0.045,0.003,0.083-0.022,0.086-0.05l0.044-0.448
			c0.001-0.03-0.037-0.057-0.086-0.056l-4.668,0.006C28.736,20.607,28.706,20.622,28.687,20.647z"/>
	</g>
	<g>
		<path fill="#5274B9" d="M29.594,21.207h-0.138c-0.026-0.002-0.048-0.014-0.045-0.031l0.062-0.583
			c0.001-0.016,0.025-0.031,0.053-0.03l0.139-0.001c0.026,0.001,0.047,0.014,0.044,0.032l-0.062,0.582
			C29.645,21.191,29.621,21.207,29.594,21.207z"/>
		<path fill="#5274B9" d="M33.024,21.206h-0.138c-0.026-0.001-0.047-0.014-0.044-0.03l0.062-0.581
			c0.001-0.019,0.025-0.032,0.051-0.032h0.137c0.027,0.001,0.049,0.015,0.046,0.031l-0.062,0.581
			C33.076,21.192,33.052,21.207,33.024,21.206z"/>
		<path fill="#5274B9" d="M31.454,21.203h-0.138c-0.026-0.001-0.048-0.014-0.045-0.03l0.062-0.582
			c0.001-0.018,0.025-0.031,0.052-0.031h0.138c0.026,0.001,0.047,0.014,0.045,0.031l-0.062,0.581
			C31.504,21.189,31.481,21.203,31.454,21.203z"/>
	</g>
	<path fill="#FBB474" d="M30.132,10.447c0.146,0.75,0.29,2.104-0.219,2.513c0,0,0.203,0.77,1.565,0.974
		c1.503,0.228,0.715-0.629,0.715-0.629c-0.819-0.325-0.799-0.917-0.658-1.461L30.132,10.447z"/>
	<path fill="#FBB474" d="M29.918,12.954c0.766,0.061,1.407,0.132,2.158,0.3l1.03,0.307c0.184,0.37-0.116,1.129-0.979,1.273
		c0,0-2.173,0.299-2.813-1.937L29.918,12.954z"/>
	<path opacity="0.2" fill="#010101" enable-background="new    " d="M30.704,11.018l0.831,0.826
		c-0.035,0.128-0.058,0.258-0.069,0.39c-0.313-0.092-0.817-0.437-0.852-0.768C30.613,11.312,30.644,11.16,30.704,11.018z"/>
	<path fill="#FBB474" d="M29.212,9.499c0.369,1.166,0.499,1.667,1.254,2.126c1.127,0.689,2.485-0.017,2.465-1.269
		c-0.009-1.126-0.609-2.842-1.89-3.026c-0.911-0.136-1.759,0.493-1.894,1.402C29.109,8.989,29.132,9.252,29.212,9.499z"/>
	<path fill="#EC893F" d="M31.992,9.316c0.131,0.206,0.29,0.392,0.471,0.554c-0.086,0.092-0.208,0.141-0.334,0.134L31.992,9.316z"/>
	<path fill="#273238" d="M31.863,10.628c0.046-0.005,0.093-0.014,0.139-0.026c0.014-0.004,0.023-0.019,0.02-0.033
		c0,0,0-0.001,0-0.002c-0.004-0.014-0.02-0.024-0.035-0.021c-0.242,0.066-0.5,0.013-0.696-0.144
		c-0.012-0.011-0.031-0.011-0.042,0.001c-0.011,0.012-0.01,0.031,0.001,0.042C31.422,10.585,31.642,10.651,31.863,10.628z"/>
	<path fill="#5274B9" d="M28.813,7.172c-0.305,0.194-0.504,0.543-0.516,0.903c-0.003,0.069,0.002,0.14,0.032,0.202
		c0.03,0.062,0.089,0.113,0.157,0.117c0.105,0.006,0.183-0.093,0.24-0.181c0.089-0.136,0.177-0.272,0.267-0.407
		c0.087-0.133,0.231-0.288,0.278-0.44C29.357,7.089,28.975,7.068,28.813,7.172z"/>
	<path fill="#273238" d="M28.943,7.447c-0.731,0.845-1.059,3.186,1.083,3.838c0.359-0.283-0.22-0.799-0.465-1.452
		c-0.16-0.427,0.655-1.225,0.974-1.552c0.318-0.327,0.611-0.8,1.061-0.724c0.118,0.02,0.244,0.059,0.353,0.01
		c0.355-0.162,0.184-0.375,0.004-0.524c-0.264-0.22-0.634-0.319-0.971-0.355C30.236,6.605,29.439,6.874,28.943,7.447z"/>
	<path fill="#273238" d="M31.322,7.164c0.859,0.717-0.28,0.735-0.878,1.19c-0.578,0.436-0.173,1.151-1.148,1.483
		c-0.798,0.233-0.982,0.093-1.203-0.062c0,0,0.904-0.114,1.037-1.129C29.198,8.124,30.338,6.331,31.322,7.164z"/>
	<path fill="#FBB474" d="M29.083,10.478c0.135,0.194,0.34,0.328,0.573,0.372c0.309,0.055,0.427-0.228,0.321-0.503
		c-0.1-0.247-0.38-0.574-0.678-0.503c-0.214,0.055-0.344,0.273-0.289,0.487C29.024,10.384,29.048,10.434,29.083,10.478z"/>
	<path fill="#273238" d="M31.173,7.236c0.167,0.424,0.648,0.368,1.003,0.812c0.219,0.271,0.648-0.574,0.063-0.91
		C31.656,6.802,30.912,6.572,31.173,7.236z"/>
	<path fill="#273238" d="M30.667,9.026c0.025,0.003,0.049-0.011,0.059-0.034c0.113-0.252,0.453-0.315,0.456-0.315
		c0.032-0.005,0.053-0.036,0.046-0.068c-0.006-0.031-0.037-0.052-0.068-0.046c-0.017,0.002-0.403,0.081-0.54,0.384
		c-0.014,0.029-0.001,0.064,0.028,0.077l0,0L30.667,9.026z"/>
	<path fill="#273238" d="M32.458,8.52c0.02,0.001,0.04-0.008,0.051-0.026c0.018-0.026,0.011-0.062-0.015-0.081
		c-0.001,0-0.001,0-0.001,0c-0.155-0.106-0.352-0.132-0.529-0.067c-0.03,0.013-0.043,0.047-0.031,0.077s0.047,0.044,0.077,0.031l0,0
		l0,0c0.141-0.05,0.296-0.028,0.417,0.058C32.437,8.516,32.447,8.519,32.458,8.52z"/>
	<g>
		<path fill="#5274B9" d="M38.12,16.06l-0.805,0.458l-0.84,1.804c0,0,0.811,0.516,1.449,0.099
			C38.562,18.002,38.12,16.06,38.12,16.06z"/>
		<path opacity="0.5" fill="#FFFFFF" enable-background="new    " d="M38.12,16.06l-0.805,0.458l-0.84,1.804
			c0,0,0.811,0.516,1.449,0.099C38.562,18.002,38.12,16.06,38.12,16.06z"/>
	</g>
	<g>
		<g>
			<path fill="#5274B9" d="M24.006,16.617l0.955,0.27l0.905,1.873c0,0-0.728,0.673-1.515,0.029
				C23.762,18.306,24.006,16.617,24.006,16.617z"/>
		</g>
		<g opacity="0.5" enable-background="new    ">
			<path fill="#FFFFFF" d="M24.006,16.617l0.955,0.27l0.905,1.873c0,0-0.728,0.673-1.515,0.029
				C23.762,18.306,24.006,16.617,24.006,16.617z"/>
		</g>
	</g>
	<g>
		<path fill="#273238" d="M32.403,8.987c0.065-0.013,0.134,0.062,0.152,0.164c0.019,0.102-0.021,0.196-0.087,0.207
			c-0.067,0.011-0.135-0.062-0.153-0.164C32.294,9.094,32.336,8.999,32.403,8.987z"/>
		<path fill="#273238" d="M32.606,8.886l-0.233,0.115C32.514,9.1,32.606,8.886,32.606,8.886z"/>
	</g>
	<g>
		<path fill="#273238" d="M31.25,9.223c0.066-0.013,0.135,0.062,0.152,0.164c0.019,0.102-0.021,0.196-0.088,0.207
			c-0.065,0.011-0.134-0.062-0.153-0.164C31.141,9.331,31.183,9.235,31.25,9.223z"/>
		<path fill="#273238" d="M31.454,9.123L31.22,9.236C31.361,9.335,31.454,9.123,31.454,9.123z"/>
	</g>
	<g>
		<path fill="#273238" d="M25.421,14.493c-0.131,0-0.26-0.022-0.379-0.071c-0.427-0.174-0.625-0.619-0.545-1.22
			c0.005-0.037,0.04-0.064,0.077-0.058c0.038,0.004,0.065,0.039,0.06,0.077c-0.071,0.534,0.097,0.924,0.46,1.073
			c0.394,0.162,0.918,0,1.192-0.366c0.345-0.46,0.233-1.113-0.307-1.791c-1.41-1.77-1.315-2.711-1.116-3.455
			c0.29-1.08,1.137-2.317,3.533-2.079c0.038,0.003,0.065,0.037,0.062,0.075c-0.004,0.038-0.036,0.065-0.076,0.062
			c-2.298-0.229-3.111,0.95-3.386,1.978c-0.199,0.743-0.279,1.612,1.091,3.332c0.827,1.038,0.491,1.716,0.309,1.959
			C26.168,14.315,25.786,14.493,25.421,14.493z"/>
	</g>
</g>
<circle fill="#2E3683" cx="8.44" cy="34.717" r="1.592"/>
</svg>
