<?xml version="1.0" encoding="utf-8"?>
<!-- Generator: Adobe Illustrator 16.0.0, SVG Export Plug-In . SVG Version: 6.00 Build 0)  -->
<!DOCTYPE svg PUBLIC "-//W3C//DTD SVG 1.1//EN" "http://www.w3.org/Graphics/SVG/1.1/DTD/svg11.dtd">
<svg version="1.1" id="Layer_1" xmlns="http://www.w3.org/2000/svg" xmlns:xlink="http://www.w3.org/1999/xlink" x="0px" y="0px"
	 width="300px" height="300px" viewBox="0 0 300 300" enable-background="new 0 0 300 300" xml:space="preserve">
<path d="M242.945,231.791l-96.553,1.797L91,273.337V233H56.953c0,0-51.836-5.941-51.836-57.391
	c0-58.314,51.836-63.951,51.836-63.951l185.992,0.159c0,0,52.172,8.762,52.172,60.596
	C295.117,228.82,242.945,231.791,242.945,231.791z"/>
<path fill="#FFFFFF" d="M172.435,168.907c0,12.631-10.242,22.865-22.869,22.865c-12.631,0-22.868-10.234-22.868-22.865
	c0-12.63,10.237-22.868,22.868-22.868C162.192,146.04,172.435,156.277,172.435,168.907z"/>
<circle fill="#FFFFFF" cx="73.341" cy="168.907" r="22.868"/>
<circle fill="#FFFFFF" cx="225.793" cy="168.907" r="22.867"/>
<circle cx="77.913" cy="66.767" r="30.49"/>
<circle cx="216.646" cy="66.767" r="30.494"/>
</svg>
