<?xml version="1.0" encoding="utf-8"?>
<!-- Generator: Adobe Illustrator 16.0.0, SVG Export Plug-In . SVG Version: 6.00 Build 0)  -->
<!DOCTYPE svg PUBLIC "-//W3C//DTD SVG 1.1//EN" "http://www.w3.org/Graphics/SVG/1.1/DTD/svg11.dtd">
<svg version="1.1" id="Layer_1" xmlns="http://www.w3.org/2000/svg" xmlns:xlink="http://www.w3.org/1999/xlink" x="0px" y="0px"
	 width="224.667px" height="73.333px" viewBox="0 0 224.667 73.333" enable-background="new 0 0 224.667 73.333"
	 xml:space="preserve">
<g>
	<rect x="9" y="10.667" width="209" height="53"/>
	<g>
		<path fill="#FFFFFF" d="M28.296,33.464c0,0.611,0.318,1.05,0.955,1.317c0.636,0.268,1.794,0.49,3.475,0.668
			c1.935,0.205,3.514,0.783,4.736,1.738c1.222,0.954,1.833,2.285,1.833,3.991v0.229c0,1.884-0.688,3.386-2.062,4.506
			c-1.375,1.121-3.311,1.681-5.806,1.681c-1.477,0-2.738-0.19-3.781-0.573c-1.044-0.382-1.909-0.859-2.597-1.432
			c-0.687-0.572-1.216-1.209-1.584-1.909c-0.369-0.7-0.617-1.382-0.745-2.044l4.431-1.451c0.204,0.815,0.63,1.528,1.279,2.14
			c0.649,0.61,1.648,0.916,2.998,0.916c1.196,0,2.018-0.185,2.463-0.554c0.445-0.37,0.668-0.771,0.668-1.203
			c0-0.254-0.058-0.491-0.172-0.707c-0.115-0.216-0.325-0.421-0.63-0.611c-0.305-0.19-0.719-0.349-1.241-0.477
			c-0.522-0.128-1.178-0.229-1.967-0.306c-2.139-0.178-3.838-0.731-5.098-1.662c-1.261-0.929-1.891-2.297-1.891-4.105v-0.229
			c0-0.942,0.203-1.77,0.611-2.482c0.407-0.713,0.942-1.317,1.604-1.815c0.662-0.496,1.426-0.87,2.292-1.126
			c0.865-0.254,1.756-0.381,2.673-0.381c1.197,0,2.234,0.146,3.113,0.438c0.878,0.293,1.623,0.674,2.234,1.146
			c0.611,0.471,1.107,0.992,1.49,1.564c0.382,0.574,0.674,1.128,0.878,1.661l-4.354,1.758c-0.229-0.688-0.624-1.229-1.184-1.623
			c-0.561-0.395-1.286-0.592-2.177-0.592c-0.815,0-1.426,0.146-1.833,0.438C28.499,32.668,28.296,33.031,28.296,33.464z"/>
		<path fill="#FFFFFF" d="M49.874,39.154c0.025,0.56,0.159,1.076,0.401,1.547c0.242,0.472,0.573,0.878,0.993,1.222
			c0.42,0.345,0.904,0.611,1.452,0.802c0.547,0.191,1.127,0.287,1.738,0.287c1.197,0,2.113-0.211,2.75-0.63
			c0.636-0.42,1.094-0.924,1.375-1.509l4.125,2.291c-0.229,0.484-0.548,0.987-0.955,1.509c-0.407,0.522-0.936,1-1.585,1.432
			c-0.649,0.434-1.439,0.791-2.368,1.07c-0.93,0.279-2.018,0.42-3.266,0.42c-1.426,0-2.725-0.229-3.895-0.687
			c-1.171-0.459-2.184-1.12-3.036-1.987c-0.854-0.864-1.516-1.922-1.986-3.17c-0.472-1.246-0.707-2.659-0.707-4.239v-0.229
			c0-1.45,0.249-2.773,0.745-3.972c0.497-1.196,1.178-2.215,2.043-3.056c0.865-0.839,1.877-1.494,3.036-1.967
			c1.158-0.47,2.399-0.705,3.724-0.705c1.629,0,3.03,0.285,4.201,0.859c1.17,0.572,2.139,1.298,2.903,2.176
			c0.764,0.879,1.323,1.846,1.68,2.903c0.356,1.057,0.535,2.081,0.535,3.074v2.559H49.874z M54.418,31.937
			c-1.222,0-2.215,0.312-2.979,0.935c-0.764,0.624-1.26,1.345-1.49,2.158h8.937c-0.152-0.891-0.629-1.628-1.432-2.215
			C56.653,32.229,55.641,31.937,54.418,31.937z"/>
		<path fill="#FFFFFF" d="M73.248,39.154c0.025,0.56,0.159,1.076,0.401,1.547c0.242,0.472,0.573,0.878,0.993,1.222
			c0.42,0.345,0.904,0.611,1.452,0.802c0.547,0.191,1.127,0.287,1.738,0.287c1.196,0,2.113-0.211,2.75-0.63
			c0.636-0.42,1.094-0.924,1.375-1.509l4.125,2.291c-0.229,0.484-0.548,0.987-0.955,1.509c-0.407,0.522-0.936,1-1.585,1.432
			c-0.649,0.434-1.439,0.791-2.368,1.07c-0.93,0.279-2.019,0.42-3.266,0.42c-1.426,0-2.725-0.229-3.896-0.687
			c-1.171-0.459-2.183-1.12-3.036-1.987c-0.854-0.864-1.515-1.922-1.986-3.17c-0.472-1.246-0.707-2.659-0.707-4.239v-0.229
			c0-1.45,0.248-2.773,0.745-3.972c0.496-1.196,1.178-2.215,2.043-3.056c0.865-0.839,1.877-1.494,3.036-1.967
			c1.158-0.47,2.399-0.705,3.724-0.705c1.629,0,3.03,0.285,4.201,0.859c1.17,0.572,2.139,1.298,2.902,2.176
			c0.764,0.879,1.323,1.846,1.681,2.903c0.356,1.057,0.534,2.081,0.534,3.074v2.559H73.248z M77.792,31.937
			c-1.222,0-2.215,0.312-2.979,0.935c-0.764,0.624-1.26,1.345-1.49,2.158h8.937c-0.153-0.891-0.629-1.628-1.432-2.215
			C80.026,32.229,79.014,31.937,77.792,31.937z"/>
		<path fill="#FFFFFF" d="M91.731,48.894h18.714v4.354H91.731V48.894z"/>
		<path fill="#FFFFFF" d="M128.587,28.116h4.812v23.603c0,0.865-0.273,1.578-0.82,2.14c-0.549,0.559-1.255,0.84-2.12,0.84h-11.267
			v-4.583h8.364c0.687,0,1.031-0.382,1.031-1.146v-4.659h-0.688c-0.84,2.19-2.648,3.284-5.424,3.284
			c-0.942,0-1.82-0.153-2.635-0.459c-0.815-0.306-1.527-0.775-2.139-1.413c-0.611-0.635-1.089-1.432-1.433-2.387
			c-0.344-0.954-0.516-2.081-0.516-3.38v-11.84h4.813v10.848c0,1.35,0.318,2.399,0.955,3.15c0.636,0.751,1.591,1.127,2.864,1.127
			c1.451,0,2.515-0.465,3.189-1.395c0.674-0.929,1.012-2.195,1.012-3.8V28.116z"/>
		<path fill="#FFFFFF" d="M157.688,37.817c0,1.58-0.267,2.974-0.802,4.182c-0.535,1.211-1.261,2.229-2.177,3.056
			c-0.916,0.827-1.967,1.459-3.15,1.891c-1.185,0.434-2.426,0.649-3.724,0.649c-1.3,0-2.54-0.216-3.725-0.649
			c-1.184-0.432-2.234-1.063-3.15-1.891c-0.917-0.826-1.642-1.845-2.177-3.056c-0.534-1.208-0.802-2.602-0.802-4.182V37.36
			c0-1.554,0.268-2.936,0.802-4.145c0.535-1.209,1.26-2.235,2.177-3.074c0.916-0.841,1.967-1.478,3.15-1.91
			c1.185-0.433,2.425-0.648,3.725-0.648c1.298,0,2.539,0.216,3.724,0.648c1.184,0.433,2.234,1.069,3.15,1.91
			c0.916,0.839,1.642,1.865,2.177,3.074s0.802,2.591,0.802,4.145V37.817z M147.836,43.012c0.687,0,1.337-0.114,1.947-0.344
			c0.611-0.229,1.146-0.56,1.604-0.993c0.458-0.433,0.821-0.961,1.088-1.585c0.268-0.624,0.401-1.33,0.401-2.12v-0.763
			c0-0.789-0.134-1.495-0.401-2.121c-0.267-0.622-0.63-1.151-1.088-1.585c-0.459-0.432-0.993-0.763-1.604-0.992
			c-0.61-0.229-1.261-0.343-1.947-0.343c-0.688,0-1.337,0.114-1.948,0.343c-0.611,0.229-1.146,0.561-1.604,0.992
			c-0.459,0.434-0.821,0.963-1.089,1.585c-0.268,0.626-0.401,1.332-0.401,2.121v0.763c0,0.79,0.134,1.496,0.401,2.12
			s0.63,1.152,1.089,1.585c0.458,0.434,0.992,0.764,1.604,0.993S147.147,43.012,147.836,43.012z"/>
		<path fill="#FFFFFF" d="M175.332,28.116h4.813V47.06h-4.813v-2.749h-0.687c-0.841,2.19-2.648,3.284-5.424,3.284
			c-0.941,0-1.82-0.153-2.636-0.459c-0.814-0.306-1.527-0.775-2.139-1.413c-0.609-0.635-1.087-1.432-1.432-2.387
			c-0.344-0.954-0.515-2.081-0.515-3.38v-11.84h4.812v10.848c0,1.35,0.318,2.399,0.955,3.15c0.636,0.751,1.591,1.127,2.864,1.127
			c1.45,0,2.514-0.465,3.189-1.395c0.674-0.929,1.011-2.195,1.011-3.8V28.116z"/>
		<path fill="#FFFFFF" d="M198.209,43.966c0,0.511-0.094,0.988-0.285,1.433c-0.192,0.446-0.453,0.828-0.783,1.146
			c-0.331,0.318-0.72,0.572-1.165,0.764c-0.445,0.19-0.91,0.286-1.394,0.286c-0.51,0-0.981-0.096-1.413-0.286
			c-0.434-0.191-0.815-0.445-1.146-0.764s-0.593-0.7-0.783-1.146c-0.19-0.444-0.285-0.922-0.285-1.433
			c0-0.508,0.095-0.985,0.285-1.432c0.19-0.444,0.452-0.828,0.783-1.146c0.331-0.316,0.713-0.572,1.146-0.763
			c0.432-0.19,0.903-0.287,1.413-0.287c0.483,0,0.948,0.097,1.394,0.287s0.834,0.446,1.165,0.763
			c0.33,0.318,0.591,0.702,0.783,1.146C198.115,42.98,198.209,43.458,198.209,43.966z M197.102,20.325v18.639h-5.04V20.325H197.102z
			"/>
	</g>
</g>
</svg>
